<svg version="1.1" xmlns="http://www.w3.org/2000/svg" xmlns:xlink="http://www.w3.org/1999/xlink" width="8.02147" height="14.01744" viewBox="0,0,8.02147,14.01744"><g transform="translate(-315.98926,-172.99128)"><g data-paper-data="{&quot;isPaintingLayer&quot;:true}" fill="#000000" fill-rule="nonzero" stroke="none" stroke-width="1.76777" stroke-linecap="butt" stroke-linejoin="miter" stroke-miterlimit="10" stroke-dasharray="" stroke-dashoffset="0" style="mix-blend-mode: normal"><path d="M319.898,186.98914c-0.4365,-0.016 -0.864,-0.09 -1.2735,-0.24c-1.065,-0.39 -1.9305,-1.236 -2.3475,-2.292c-0.12,-0.306 -0.204,-0.63 -0.2445,-0.958c-0.018,-0.134 -0.0255,-0.27 -0.0315,-0.406c-0.0255,-2.036 -0.0015,-4.072 -0.0015,-6.108c0.003,-0.168 0.012,-0.336 0.033,-0.502c0.045,-0.36 0.141,-0.714 0.282,-1.05c0.276,-0.65 0.726,-1.224 1.2915,-1.646c0.39,-0.292 0.8325,-0.512 1.299,-0.644c0.4215,-0.12 0.8625,-0.17 1.3005,-0.146c0.432,0.02 0.8595,0.114 1.2615,0.272c0.4485,0.176 0.8655,0.436 1.2225,0.762c0.3795,0.344 0.693,0.762 0.915,1.226c0.1725,0.354 0.2895,0.736 0.3495,1.126c0.0255,0.168 0.039,0.336 0.045,0.506c0.0255,2.036 0.0015,4.072 0.0015,6.108c-0.006,0.468 -0.0825,0.93 -0.243,1.37c-0.09,0.244 -0.2055,0.476 -0.3375,0.698l-0.009,0.016l0.0495,0.022l0.0585,0.034c0.051,0.032 0.0645,0.04 0.1125,0.078c0.105,0.086 0.1935,0.194 0.2565,0.316c0.0525,0.102 0.087,0.212 0.102,0.324c0.054,0.39 -0.1335,0.786 -0.471,0.99c-0.138,0.086 -0.2895,0.128 -0.4515,0.144c-1.056,0.036 -2.1135,0.014 -3.1695,0zM319.9475,174.99114c-0.2175,0.01 -0.4305,0.046 -0.6345,0.122c-0.5325,0.194 -0.9675,0.618 -1.1745,1.144c-0.0855,0.218 -0.129,0.448 -0.138,0.682c-0.0255,2.034 -0.0255,4.07 0,6.104c0.0105,0.282 0.0735,0.558 0.1965,0.814c0.111,0.232 0.2685,0.442 0.459,0.614c0.1785,0.162 0.3855,0.292 0.6105,0.382c0.201,0.078 0.414,0.124 0.63,0.136c0.2355,0.012 0.4725,-0.018 0.699,-0.088c0.5415,-0.168 0.9945,-0.572 1.2285,-1.088c0.1095,-0.242 0.165,-0.504 0.1755,-0.77c0.0255,-2.034 0.0255,-4.07 0,-6.104c-0.009,-0.218 -0.045,-0.43 -0.12,-0.636c-0.195,-0.532 -0.6195,-0.966 -1.146,-1.174c-0.219,-0.086 -0.447,-0.128 -0.681,-0.138c-0.0525,0 -0.0525,0 -0.105,0z"/></g></g></svg>