<svg version="1.1" xmlns="http://www.w3.org/2000/svg" xmlns:xlink="http://www.w3.org/1999/xlink" width="2.071" height="7.99984" viewBox="0,0,2.071,7.99984"><g transform="translate(-318.9645,-176.00008)"><g data-paper-data="{&quot;isPaintingLayer&quot;:true}" fill="#000000" fill-rule="nonzero" stroke="none" stroke-width="2" stroke-linecap="butt" stroke-linejoin="miter" stroke-miterlimit="10" stroke-dasharray="" stroke-dashoffset="0" style="mix-blend-mode: normal"><path d="M320.072,176.00158c0.114,0.012 0.222,0.036 0.328,0.082c0.252,0.11 0.452,0.324 0.544,0.584c0.032,0.092 0.048,0.186 0.054,0.284c0.05,2.032 0.05,4.064 0,6.096c-0.01,0.146 -0.044,0.286 -0.112,0.416c-0.06,0.114 -0.142,0.218 -0.242,0.3c-0.086,0.074 -0.184,0.132 -0.29,0.172c-0.09,0.034 -0.186,0.054 -0.282,0.062c-0.376,0.026 -0.744,-0.166 -0.934,-0.492c-0.082,-0.14 -0.126,-0.296 -0.136,-0.458c-0.05,-2.032 -0.05,-4.064 0,-6.096c0.008,-0.114 0.028,-0.224 0.072,-0.33c0.104,-0.254 0.314,-0.46 0.572,-0.558c0.09,-0.034 0.184,-0.052 0.282,-0.062c0.048,-0.002 0.096,-0.002 0.144,0z"/></g></g></svg>