<svg version="1.1" xmlns="http://www.w3.org/2000/svg" xmlns:xlink="http://www.w3.org/1999/xlink" width="7.99875" height="14.07925" viewBox="0,0,7.99875,14.07925"><g transform="translate(-316.00062,-172.96038)"><g data-paper-data="{&quot;isPaintingLayer&quot;:true}" fill="#000000" fill-rule="nonzero" stroke="none" stroke-width="1.76777" stroke-linecap="butt" stroke-linejoin="miter" stroke-miterlimit="10" stroke-dasharray="" stroke-dashoffset="0" style="mix-blend-mode: normal"><path d="M323.06796,173.01288c0.0615,0.006 0.0765,0.006 0.1365,0.018c0.156,0.034 0.303,0.104 0.4275,0.204c0.0885,0.072 0.1635,0.16 0.2235,0.256c0.2175,0.358 0.1845,0.826 -0.0795,1.152c-0.0855,0.106 -0.1935,0.192 -0.315,0.256c-0.1455,0.074 -0.2985,0.106 -0.4605,0.112h-1.9995v10h1.9995c0.162,0.006 0.315,0.038 0.4605,0.112c0.1215,0.062 0.2295,0.15 0.315,0.256c0.072,0.09 0.129,0.19 0.1665,0.298c0.141,0.394 0.0135,0.846 -0.3105,1.11c-0.1245,0.1 -0.2715,0.17 -0.4275,0.204c-0.06,0.012 -0.075,0.012 -0.1365,0.018c-2.0205,0.068 -4.044,0.002 -6.0675,0.002c-0.162,-0.006 -0.315,-0.038 -0.4605,-0.112c-0.1215,-0.064 -0.2295,-0.15 -0.315,-0.256c-0.072,-0.09 -0.129,-0.19 -0.1665,-0.298c-0.0315,-0.084 -0.0495,-0.174 -0.0555,-0.266c-0.024,-0.344 0.138,-0.686 0.4215,-0.884c0.129,-0.092 0.282,-0.152 0.4395,-0.174c0.06,-0.008 0.0765,-0.008 0.1365,-0.01h1.9995v-10h-1.9995c-0.162,-0.006 -0.315,-0.038 -0.4605,-0.112c-0.1215,-0.064 -0.2295,-0.15 -0.315,-0.256c-0.072,-0.09 -0.129,-0.19 -0.1665,-0.298c-0.141,-0.394 -0.0135,-0.846 0.3105,-1.11c0.1245,-0.1 0.2715,-0.17 0.4275,-0.204c0.06,-0.012 0.075,-0.012 0.1365,-0.018c2.043,-0.07 4.092,-0.07 6.135,0z"/></g></g></svg>