<svg version="1.1" xmlns="http://www.w3.org/2000/svg" xmlns:xlink="http://www.w3.org/1999/xlink" width="8.0082" height="14.02237" viewBox="0,0,8.0082,14.02237"><g transform="translate(-315.9959,-172.98881)"><g data-paper-data="{&quot;isPaintingLayer&quot;:true}" fill="#000000" fill-rule="nonzero" stroke="none" stroke-width="2" stroke-linecap="butt" stroke-linejoin="miter" stroke-miterlimit="10" stroke-dasharray="" stroke-dashoffset="0" style="mix-blend-mode: normal"><path d="M320.096,173.0084c0.436,0.016 0.864,0.09 1.274,0.24c1.064,0.39 1.93,1.236 2.346,2.292c0.122,0.306 0.204,0.63 0.246,0.958c0.018,0.134 0.026,0.27 0.03,0.406c0.026,2.036 0.002,4.072 0.002,6.108c-0.006,0.468 -0.082,0.928 -0.242,1.37c-0.402,1.096 -1.288,1.98 -2.382,2.382c-0.41,0.15 -0.838,0.224 -1.274,0.24c-1.034,0.014 -2.068,0.002 -3.102,0.002c-0.162,-0.006 -0.316,-0.038 -0.46,-0.112c-0.122,-0.062 -0.23,-0.15 -0.316,-0.256c-0.264,-0.326 -0.296,-0.794 -0.078,-1.152c0.058,-0.096 0.134,-0.184 0.222,-0.256c0.124,-0.1 0.272,-0.17 0.428,-0.204c0.06,-0.012 0.076,-0.012 0.136,-0.018c1.04,-0.036 2.08,0.01 3.12,-0.002c0.232,-0.01 0.464,-0.05 0.682,-0.138c0.524,-0.212 0.952,-0.64 1.144,-1.174c0.082,-0.224 0.118,-0.456 0.122,-0.694v-1.994h-5l-0.068,-0.002c-0.06,-0.006 -0.076,-0.006 -0.136,-0.018c-0.156,-0.034 -0.304,-0.104 -0.428,-0.204c-0.088,-0.072 -0.164,-0.16 -0.222,-0.256c-0.218,-0.358 -0.186,-0.826 0.078,-1.152c0.086,-0.106 0.194,-0.194 0.316,-0.256c0.144,-0.074 0.298,-0.106 0.46,-0.112h5c0,-0.684 0.008,-1.368 0,-2.052c-0.002,-0.052 -0.006,-0.102 -0.01,-0.154c-0.024,-0.196 -0.07,-0.388 -0.146,-0.572c-0.216,-0.506 -0.64,-0.912 -1.156,-1.1c-0.206,-0.076 -0.418,-0.114 -0.636,-0.122c-1.018,-0.012 -2.034,0 -3.052,0c-0.162,-0.006 -0.316,-0.038 -0.46,-0.112c-0.122,-0.062 -0.23,-0.15 -0.316,-0.256c-0.264,-0.326 -0.296,-0.794 -0.078,-1.152c0.058,-0.096 0.134,-0.184 0.222,-0.256c0.124,-0.1 0.272,-0.17 0.428,-0.204c0.06,-0.012 0.076,-0.012 0.136,-0.018c1.056,-0.036 2.114,-0.014 3.17,0z"/></g></g></svg>