<svg version="1.1" xmlns="http://www.w3.org/2000/svg" xmlns:xlink="http://www.w3.org/1999/xlink" width="699" height="410" viewBox="0,0,699,410"><g transform="translate(34.5,26.99998)"><g data-paper-data="{&quot;isPaintingLayer&quot;:true}" fill-rule="nonzero" stroke="none" stroke-linecap="butt" stroke-linejoin="miter" stroke-miterlimit="10" stroke-dasharray="" stroke-dashoffset="0" style="mix-blend-mode: normal"><path d="M-34.5,383.00003v-410h699v410z" fill="#ff4c4c" stroke-width="0"/><text transform="translate(222.41005,63.08356) scale(1.04733,1.04733)" font-size="40" xml:space="preserve" fill="#ffffff" fill-rule="nonzero" stroke="none" stroke-width="1" stroke-linecap="butt" stroke-linejoin="miter" stroke-miterlimit="10" stroke-dasharray="" stroke-dashoffset="0" font-family="Sans Serif" font-weight="normal" text-anchor="start" style="mix-blend-mode: normal"><tspan x="0" dy="0">Welcome!</tspan></text><text transform="translate(148.36015,162.69376) scale(0.5,0.5)" font-size="40" xml:space="preserve" fill="#ffffff" fill-rule="nonzero" stroke="none" stroke-width="1" stroke-linecap="butt" stroke-linejoin="miter" stroke-miterlimit="10" stroke-dasharray="" stroke-dashoffset="0" font-family="Sans Serif" font-weight="normal" text-anchor="start" style="mix-blend-mode: normal"><tspan x="0" dy="0">Looks like you are new to the game!</tspan><tspan x="0" dy="46.150000000000006px"> </tspan><tspan x="0" dy="46.150000000000006px">Now choose a color you like!</tspan></text><path d="M81.12903,258.26116c0,-11.24082 9.11248,-20.3533 20.3533,-20.3533c11.24082,0 20.3533,9.11248 20.3533,20.3533c0,11.24082 -9.11248,20.3533 -20.3533,20.3533c-11.24082,0 -20.3533,-9.11248 -20.3533,-20.3533z" fill="#ff6666" stroke-width="0"/><path d="M141.03687,70.85717c0,-3.60555 2.92287,-6.52842 6.52842,-6.52842c3.60555,0 6.52842,2.92287 6.52842,6.52842c0,3.60555 -2.92287,6.52842 -6.52842,6.52842c-3.60555,0 -6.52842,-2.92287 -6.52842,-6.52842z" fill="#ff6666" stroke-width="0"/><path d="M515.84485,282.83873c0,-11.24082 9.11248,-20.3533 20.3533,-20.3533c11.24082,0 20.3533,9.11248 20.3533,20.3533c0,11.24082 -9.11248,20.3533 -20.3533,20.3533c-11.24082,0 -20.3533,-9.11248 -20.3533,-20.3533z" fill="#ff6666" stroke-width="0"/><path d="M515.84485,109.25963c0,-4.02973 3.26674,-7.29647 7.29647,-7.29647c4.02973,0 7.29647,3.26674 7.29647,7.29647c0,4.02973 -3.26674,7.29647 -7.29647,7.29647c-4.02973,0 -7.29647,-3.26674 -7.29647,-7.29647z" fill="#ff6666" stroke-width="0"/></g></g></svg>