<svg version="1.1" xmlns="http://www.w3.org/2000/svg" xmlns:xlink="http://www.w3.org/1999/xlink" width="8.02919" height="14.05555" viewBox="0,0,8.02919,14.05555"><g transform="translate(-315.98541,-172.97223)"><g data-paper-data="{&quot;isPaintingLayer&quot;:true}" fill="#000000" fill-rule="nonzero" stroke="none" stroke-width="1" stroke-linecap="butt" stroke-linejoin="miter" stroke-miterlimit="10" stroke-dasharray="" stroke-dashoffset="0" style="mix-blend-mode: normal"><path d="M323.0826,173.02473c0.061,0.007 0.076,0.007 0.135,0.019c0.157,0.032 0.304,0.103 0.428,0.203c0.325,0.264 0.451,0.717 0.311,1.111c-0.038,0.107 -0.094,0.208 -0.166,0.296c-0.087,0.106 -0.195,0.194 -0.316,0.257c-0.144,0.075 -0.298,0.106 -0.46,0.112h-5v4c0.701,0 1.402,-0.008 2.103,0.001c0.169,0.007 0.337,0.019 0.505,0.045c0.39,0.06 0.771,0.178 1.127,0.349c0.462,0.223 0.88,0.535 1.226,0.915c0.325,0.358 0.584,0.774 0.761,1.223c0.159,0.402 0.251,0.83 0.273,1.262c0.02,0.404 -0.02,0.812 -0.121,1.204c-0.121,0.472 -0.33,0.92 -0.612,1.317c-0.41,0.576 -0.972,1.039 -1.615,1.33c-0.331,0.15 -0.681,0.253 -1.039,0.308c-0.168,0.026 -0.336,0.038 -0.505,0.045c-1.034,0.013 -2.069,0.001 -3.103,0.001c-0.162,-0.006 -0.316,-0.037 -0.46,-0.112c-0.121,-0.063 -0.229,-0.151 -0.316,-0.257c-0.264,-0.325 -0.296,-0.793 -0.078,-1.151c0.059,-0.097 0.135,-0.184 0.223,-0.256c0.124,-0.1 0.271,-0.171 0.428,-0.203c0.059,-0.012 0.074,-0.012 0.135,-0.019c1.039,-0.035 2.08,0.01 3.12,-0.003c0.267,-0.01 0.527,-0.065 0.771,-0.175c0.516,-0.234 0.919,-0.688 1.087,-1.229c0.07,-0.225 0.099,-0.463 0.087,-0.699c-0.011,-0.215 -0.056,-0.428 -0.135,-0.629c-0.089,-0.225 -0.219,-0.433 -0.381,-0.611c-0.173,-0.191 -0.383,-0.348 -0.614,-0.459c-0.256,-0.123 -0.532,-0.186 -0.815,-0.196c-1.017,-0.013 -2.035,-0.001 -3.052,-0.001c-0.115,-0.004 -0.226,-0.019 -0.335,-0.058c-0.281,-0.1 -0.507,-0.326 -0.607,-0.607c-0.031,-0.087 -0.046,-0.175 -0.056,-0.267c-0.069,-2.021 -0.002,-4.045 -0.002,-6.068c0.003,-0.092 0.012,-0.181 0.037,-0.27c0.081,-0.287 0.291,-0.528 0.565,-0.647c0.106,-0.046 0.215,-0.069 0.33,-0.081c2.044,-0.07 4.092,-0.07 6.136,0z"/></g></g></svg>