<svg version="1.1" xmlns="http://www.w3.org/2000/svg" xmlns:xlink="http://www.w3.org/1999/xlink" width="7.99807" height="14.02237" viewBox="0,0,7.99807,14.02237"><g transform="translate(-316.00097,-172.98881)"><g data-paper-data="{&quot;isPaintingLayer&quot;:true}" fill="#000000" fill-rule="nonzero" stroke="none" stroke-width="2" stroke-linecap="butt" stroke-linejoin="miter" stroke-miterlimit="10" stroke-dasharray="" stroke-dashoffset="0" style="mix-blend-mode: normal"><path d="M323.06753,173.0084c0.068,0.008 0.136,0.016 0.202,0.036c0.154,0.042 0.296,0.122 0.412,0.232c0.084,0.076 0.154,0.168 0.206,0.27c0.182,0.35 0.136,0.786 -0.112,1.092c-0.072,0.088 -0.16,0.164 -0.256,0.222c-0.14,0.086 -0.29,0.128 -0.452,0.144c-1.038,0.036 -2.078,-0.01 -3.118,0.002c-0.278,0.012 -0.552,0.072 -0.804,0.192c-0.178,0.084 -0.342,0.194 -0.488,0.326c-0.134,0.12 -0.252,0.26 -0.348,0.414c-0.284,0.448 -0.378,1.004 -0.258,1.52c0.054,0.238 0.152,0.464 0.29,0.666c0.29,0.43 0.746,0.738 1.254,0.842c0.098,0.02 0.2,0.032 0.3,0.038c0.104,0.004 0.206,0.004 0.31,0.008c0.1,0.006 0.1,0.006 0.202,0.014c0.166,0.02 0.332,0.044 0.494,0.082c0.414,0.096 0.81,0.258 1.172,0.478c0.356,0.216 0.678,0.488 0.95,0.802c0.296,0.34 0.532,0.732 0.698,1.152c0.37,0.934 0.37,1.998 0,2.932c-0.176,0.45 -0.436,0.866 -0.762,1.224c-0.344,0.38 -0.762,0.692 -1.226,0.916c-0.354,0.17 -0.736,0.288 -1.126,0.348c-0.168,0.026 -0.336,0.038 -0.506,0.044c-1.034,0.014 -2.068,0.002 -3.102,0.002c-0.162,-0.006 -0.316,-0.038 -0.46,-0.112c-0.122,-0.064 -0.23,-0.15 -0.316,-0.256c-0.072,-0.09 -0.128,-0.19 -0.166,-0.298c-0.14,-0.394 -0.014,-0.846 0.31,-1.11c0.124,-0.1 0.272,-0.17 0.428,-0.204c0.06,-0.012 0.076,-0.012 0.136,-0.018c1.04,-0.036 2.08,0.01 3.12,-0.002c0.282,-0.012 0.558,-0.074 0.814,-0.196c0.452,-0.218 0.812,-0.606 0.996,-1.07c0.072,-0.186 0.116,-0.382 0.132,-0.58c0.016,-0.202 0,-0.408 -0.046,-0.606c-0.054,-0.238 -0.152,-0.464 -0.29,-0.666c-0.29,-0.43 -0.746,-0.738 -1.254,-0.842c-0.098,-0.02 -0.2,-0.032 -0.3,-0.038c-0.104,-0.004 -0.206,-0.004 -0.31,-0.008c-0.1,-0.006 -0.1,-0.006 -0.202,-0.014c-0.166,-0.02 -0.332,-0.044 -0.494,-0.082c-0.382,-0.088 -0.75,-0.234 -1.09,-0.428c-0.36,-0.208 -0.688,-0.472 -0.968,-0.78c-0.282,-0.31 -0.514,-0.662 -0.686,-1.044c-0.438,-0.968 -0.468,-2.094 -0.086,-3.086c0.176,-0.458 0.438,-0.882 0.766,-1.244c0.354,-0.39 0.782,-0.708 1.256,-0.932c0.354,-0.168 0.732,-0.282 1.12,-0.34c0.162,-0.024 0.326,-0.036 0.49,-0.042c1.056,-0.014 2.112,-0.036 3.168,0z"/></g></g></svg>