<svg version="1.1" xmlns="http://www.w3.org/2000/svg" xmlns:xlink="http://www.w3.org/1999/xlink" width="7.99917" height="14.07925" viewBox="0,0,7.99917,14.07925"><g transform="translate(-316.00041,-172.96038)"><g data-paper-data="{&quot;isPaintingLayer&quot;:true}" fill="#000000" fill-rule="nonzero" stroke="none" stroke-width="2" stroke-linecap="butt" stroke-linejoin="miter" stroke-miterlimit="10" stroke-dasharray="" stroke-dashoffset="0" style="mix-blend-mode: normal"><path d="M323.06804,173.01288c0.136,0.014 0.266,0.046 0.39,0.108c0.348,0.18 0.562,0.556 0.54,0.946c-0.008,0.138 -0.046,0.266 -0.104,0.392l-5.276,10.552h4.382l0.068,0.002c0.162,0.016 0.312,0.058 0.452,0.144c0.096,0.058 0.184,0.134 0.256,0.222c0.248,0.306 0.294,0.742 0.112,1.092c-0.052,0.102 -0.122,0.194 -0.206,0.27c-0.116,0.11 -0.258,0.19 -0.412,0.232c-0.066,0.02 -0.134,0.028 -0.202,0.036c-2.022,0.068 -4.046,0.002 -6.068,0.002c-0.138,-0.004 -0.268,-0.026 -0.396,-0.082c-0.382,-0.164 -0.626,-0.56 -0.602,-0.974c0.008,-0.138 0.046,-0.266 0.104,-0.392l5.276,-10.552h-4.382l-0.068,-0.002c-0.068,-0.008 -0.136,-0.016 -0.202,-0.036c-0.154,-0.042 -0.296,-0.122 -0.412,-0.232c-0.084,-0.076 -0.154,-0.168 -0.206,-0.27c-0.182,-0.35 -0.136,-0.786 0.112,-1.092c0.072,-0.088 0.16,-0.164 0.256,-0.222c0.14,-0.086 0.29,-0.128 0.452,-0.144c2.044,-0.07 4.092,-0.07 6.136,0z"/></g></g></svg>