<svg version="1.1" xmlns="http://www.w3.org/2000/svg" xmlns:xlink="http://www.w3.org/1999/xlink" width="7.99855" height="13.99858" viewBox="0,0,7.99855,13.99858"><g transform="translate(-316.00073,-173.00071)"><g data-paper-data="{&quot;isPaintingLayer&quot;:true}" fill="#000000" fill-rule="nonzero" stroke="none" stroke-width="2" stroke-linecap="butt" stroke-linejoin="miter" stroke-miterlimit="10" stroke-dasharray="" stroke-dashoffset="0" style="mix-blend-mode: normal"><path d="M323.04085,173.00071c0.114,0.01 0.224,0.028 0.332,0.072c0.3,0.12 0.526,0.384 0.6,0.698c0.034,0.134 0.032,0.268 0.012,0.406c-0.868,4.054 -2.008,8.044 -3.014,12.066c-0.016,0.058 -0.02,0.074 -0.042,0.13c-0.05,0.126 -0.126,0.242 -0.224,0.338c-0.08,0.08 -0.174,0.146 -0.276,0.194c-0.376,0.178 -0.838,0.1 -1.132,-0.194c-0.116,-0.114 -0.192,-0.25 -0.248,-0.402c-1.142,-3.986 -2.012,-8.044 -3.018,-12.066c-0.012,-0.058 -0.018,-0.074 -0.024,-0.134c-0.018,-0.158 0.004,-0.32 0.062,-0.47c0.04,-0.106 0.1,-0.204 0.174,-0.29c0.226,-0.262 0.58,-0.392 0.922,-0.334c0.09,0.014 0.178,0.042 0.26,0.08c0.124,0.058 0.236,0.142 0.326,0.244c0.108,0.122 0.176,0.264 0.22,0.42l2.03,8.118l2.03,-8.118l0.018,-0.066c0.032,-0.086 0.068,-0.168 0.12,-0.246c0.126,-0.19 0.316,-0.334 0.536,-0.4c0.066,-0.022 0.132,-0.032 0.2,-0.042c0.068,-0.004 0.068,-0.004 0.136,-0.004z"/></g></g></svg>