<svg version="1.1" xmlns="http://www.w3.org/2000/svg" xmlns:xlink="http://www.w3.org/1999/xlink" width="8.04166" height="7.99984" viewBox="0,0,8.04166,7.99984"><g transform="translate(-315.97917,-176.00008)"><g data-paper-data="{&quot;isPaintingLayer&quot;:true}" fill="#000000" fill-rule="nonzero" stroke="none" stroke-width="1" stroke-linecap="butt" stroke-linejoin="miter" stroke-miterlimit="10" stroke-dasharray="" stroke-dashoffset="0" style="mix-blend-mode: normal"><path d="M320.001,183.49959c-0.179,0.134 -0.376,0.245 -0.584,0.327c-0.252,0.099 -0.519,0.157 -0.789,0.17c-0.253,0.013 -0.507,-0.012 -0.752,-0.075c-0.728,-0.187 -1.345,-0.707 -1.655,-1.392c-0.138,-0.305 -0.208,-0.632 -0.22,-0.965c-0.02,-1.538 -0.037,-3.076 0,-4.613c0.012,-0.162 0.054,-0.317 0.137,-0.458c0.191,-0.325 0.559,-0.518 0.934,-0.491c0.097,0.007 0.192,0.028 0.282,0.063c0.106,0.04 0.205,0.098 0.291,0.17c0.098,0.083 0.18,0.186 0.24,0.3c0.069,0.13 0.103,0.27 0.114,0.416c0.037,1.533 -0.132,3.075 0.004,4.601c0.007,0.061 0.023,0.12 0.051,0.175c0.09,0.174 0.277,0.282 0.472,0.272c0.054,-0.003 0.107,-0.014 0.157,-0.034c0.056,-0.022 0.108,-0.055 0.153,-0.095c0.048,-0.044 0.087,-0.096 0.115,-0.154c0.031,-0.064 0.046,-0.133 0.049,-0.203v-0.014c-0.019,-1.516 -0.036,-3.032 0.001,-4.548c0,-0.004 0.001,-0.008 0.001,-0.013v-0.001c0.009,-0.108 0.03,-0.213 0.072,-0.314c0.007,-0.019 0.015,-0.037 0.024,-0.055c0.005,-0.011 0.011,-0.022 0.016,-0.033c0.06,-0.114 0.142,-0.217 0.241,-0.3c0.086,-0.072 0.185,-0.13 0.29,-0.17c0.007,-0.003 0.013,-0.005 0.02,-0.008l0.006,-0.002l0.006,-0.002h0.001h0.001c0.003,-0.002 0.007,-0.003 0.01,-0.004h0.002l0.003,-0.001l0.003,-0.001l0.002,-0.001l0.002,-0.001h0.002c0.073,-0.023 0.148,-0.037 0.224,-0.043c0.031,-0.002 0.062,-0.003 0.092,-0.002h0.005h0.007c0.016,0.001 0.032,0.002 0.048,0.003l0.006,0.001c0.009,0 0.02,0.001 0.035,0.003c0.01,0.001 0.019,0.003 0.028,0.004c0.038,0.006 0.075,0.014 0.112,0.024c0.063,0.017 0.124,0.039 0.183,0.068c0.111,0.055 0.211,0.131 0.294,0.221l0.003,0.004c0.046,0.05 0.087,0.105 0.122,0.165c0.012,0.02 0.022,0.04 0.032,0.06c0.019,0.037 0.035,0.075 0.049,0.115c0.031,0.087 0.047,0.176 0.055,0.268c0,0.005 0,0.01 0.001,0.015c0.037,1.522 0.02,3.045 0.001,4.568l0.003,0.033c0.007,0.061 0.023,0.12 0.051,0.175c0.09,0.174 0.277,0.282 0.472,0.272c0.054,-0.003 0.107,-0.014 0.157,-0.034c0.056,-0.022 0.108,-0.055 0.153,-0.095c0.048,-0.044 0.087,-0.096 0.115,-0.154c0.031,-0.064 0.046,-0.133 0.049,-0.203c0.019,-1.52 -0.036,-3.042 0.001,-4.562c0.008,-0.113 0.03,-0.223 0.073,-0.328c0.11,-0.271 0.339,-0.484 0.617,-0.574c0.108,-0.036 0.219,-0.049 0.333,-0.049c0.048,0.002 0.048,0.002 0.096,0.007c0.113,0.016 0.221,0.046 0.323,0.096c0.232,0.115 0.414,0.32 0.5,0.565c0.033,0.092 0.049,0.186 0.056,0.283c0.037,1.537 0.02,3.075 0,4.613c-0.013,0.354 -0.092,0.7 -0.246,1.02c-0.139,0.289 -0.335,0.55 -0.572,0.766c-0.223,0.203 -0.483,0.365 -0.764,0.476c-0.252,0.099 -0.519,0.157 -0.789,0.17c-0.253,0.013 -0.507,-0.012 -0.752,-0.075c-0.318,-0.082 -0.615,-0.227 -0.875,-0.422z"/></g></g></svg>