<svg version="1.1" xmlns="http://www.w3.org/2000/svg" xmlns:xlink="http://www.w3.org/1999/xlink" width="8.04386" height="13.99776" viewBox="0,0,8.04386,13.99776"><g transform="translate(-315.97807,-173.00112)"><g data-paper-data="{&quot;isPaintingLayer&quot;:true}" fill="#000000" fill-rule="nonzero" stroke="none" stroke-width="2" stroke-linecap="butt" stroke-linejoin="miter" stroke-miterlimit="10" stroke-dasharray="" stroke-dashoffset="0" style="mix-blend-mode: normal"><path d="M317.98007,183.10662c0.018,0.28 0.088,0.554 0.216,0.804c0.116,0.228 0.278,0.434 0.472,0.602c0.182,0.158 0.394,0.282 0.62,0.366c0.17,0.062 0.35,0.1 0.532,0.114c0.236,0.018 0.478,-0.004 0.706,-0.07c0.546,-0.154 1.01,-0.546 1.256,-1.058c0.122,-0.256 0.184,-0.53 0.196,-0.814c0.038,-3.016 0,-6.034 0,-9.052c0.002,-0.06 0.002,-0.076 0.01,-0.136c0.022,-0.158 0.082,-0.31 0.174,-0.44c0.064,-0.094 0.146,-0.176 0.24,-0.24c0.342,-0.242 0.81,-0.242 1.152,0c0.112,0.078 0.208,0.18 0.278,0.296c0.086,0.14 0.128,0.29 0.144,0.452c0.102,3.022 0.002,6.05 0.002,9.074c-0.002,0.168 -0.01,0.336 -0.032,0.502c-0.05,0.392 -0.158,0.778 -0.322,1.138c-0.372,0.822 -1.022,1.504 -1.824,1.916c-0.35,0.18 -0.728,0.306 -1.116,0.376c-0.434,0.078 -0.882,0.082 -1.318,0.016c-0.39,-0.06 -0.77,-0.178 -1.124,-0.348c-0.434,-0.21 -0.828,-0.496 -1.16,-0.844c-0.334,-0.35 -0.602,-0.758 -0.79,-1.202c-0.208,-0.492 -0.314,-1.026 -0.314,-1.56l0.002,-0.068c0.006,-0.06 0.006,-0.076 0.018,-0.136c0.034,-0.156 0.104,-0.304 0.204,-0.428c0.264,-0.324 0.716,-0.45 1.11,-0.31c0.108,0.038 0.208,0.094 0.298,0.166c0.106,0.086 0.192,0.194 0.256,0.316c0.074,0.144 0.106,0.298 0.112,0.46v-0.002c0,0.054 0,0.054 0.002,0.11z"/></g></g></svg>