<svg version="1.1" xmlns="http://www.w3.org/2000/svg" xmlns:xlink="http://www.w3.org/1999/xlink" width="8.04166" height="7.99925" viewBox="0,0,8.04166,7.99925"><g transform="translate(-315.97917,-176.00037)"><g data-paper-data="{&quot;isPaintingLayer&quot;:true}" fill="#000000" fill-rule="nonzero" stroke="none" stroke-width="1" stroke-linecap="butt" stroke-linejoin="miter" stroke-miterlimit="10" stroke-dasharray="" stroke-dashoffset="0" style="mix-blend-mode: normal"><path d="M320,176.50063c0.178,-0.134 0.374,-0.245 0.583,-0.327c0.233,-0.092 0.477,-0.145 0.726,-0.167c0.085,-0.005 0.17,-0.007 0.255,-0.006c0.272,0.01 0.539,0.057 0.796,0.151c0.665,0.244 1.206,0.772 1.466,1.431c0.108,0.273 0.162,0.56 0.173,0.853c0.02,1.537 0.037,3.075 0,4.612c-0.011,0.146 -0.045,0.286 -0.114,0.417c-0.059,0.114 -0.142,0.216 -0.24,0.299c-0.086,0.073 -0.185,0.131 -0.29,0.171c-0.091,0.034 -0.186,0.055 -0.283,0.062c-0.375,0.028 -0.743,-0.165 -0.934,-0.49c-0.083,-0.141 -0.125,-0.296 -0.137,-0.459c-0.037,-1.533 0.132,-3.074 -0.004,-4.6c-0.006,-0.057 -0.021,-0.113 -0.046,-0.164c-0.087,-0.181 -0.278,-0.293 -0.478,-0.283c-0.053,0.002 -0.106,0.014 -0.156,0.033c-0.056,0.023 -0.108,0.055 -0.153,0.096c-0.048,0.043 -0.087,0.096 -0.115,0.154c-0.031,0.063 -0.046,0.132 -0.049,0.203v0.014c0.019,1.515 0.035,3.032 -0.001,4.547c-0.012,0.163 -0.054,0.318 -0.137,0.459c-0.134,0.228 -0.356,0.391 -0.606,0.459c-0.081,0.021 -0.165,0.033 -0.249,0.034h-0.009c-0.024,0 -0.047,-0.001 -0.07,-0.003c-0.097,-0.007 -0.192,-0.028 -0.283,-0.062c-0.105,-0.04 -0.204,-0.098 -0.29,-0.171c-0.098,-0.083 -0.181,-0.185 -0.24,-0.299c-0.069,-0.131 -0.103,-0.271 -0.114,-0.417c-0.037,-1.522 -0.02,-3.045 -0.001,-4.567l-0.003,-0.033c-0.006,-0.057 -0.021,-0.113 -0.046,-0.164c-0.087,-0.181 -0.278,-0.293 -0.478,-0.283c-0.053,0.002 -0.106,0.014 -0.156,0.033c-0.056,0.023 -0.108,0.055 -0.153,0.096c-0.048,0.043 -0.087,0.096 -0.115,0.154c-0.031,0.063 -0.046,0.132 -0.049,0.203c-0.019,1.52 0.036,3.041 -0.001,4.561c-0.011,0.146 -0.045,0.286 -0.114,0.417c-0.059,0.114 -0.142,0.216 -0.24,0.299c-0.086,0.073 -0.185,0.131 -0.29,0.171c-0.091,0.034 -0.186,0.055 -0.283,0.062c-0.375,0.028 -0.743,-0.165 -0.934,-0.49c-0.083,-0.141 -0.125,-0.296 -0.137,-0.459c-0.037,-1.537 -0.02,-3.075 0,-4.612c0.01,-0.272 0.057,-0.539 0.151,-0.796c0.244,-0.665 0.772,-1.206 1.431,-1.466c0.233,-0.092 0.477,-0.145 0.726,-0.167c0.085,-0.005 0.17,-0.007 0.255,-0.006c0.272,0.01 0.539,0.057 0.796,0.151c0.23,0.084 0.446,0.203 0.64,0.349z"/></g></g></svg>