<svg version="1.1" xmlns="http://www.w3.org/2000/svg" xmlns:xlink="http://www.w3.org/1999/xlink" width="8.06464" height="13.99901" viewBox="0,0,8.06464,13.99901"><g transform="translate(-315.96768,-173.00049)"><g data-paper-data="{&quot;isPaintingLayer&quot;:true}" fill="#000000" fill-rule="nonzero" stroke="none" stroke-width="2" stroke-linecap="butt" stroke-linejoin="miter" stroke-miterlimit="10" stroke-dasharray="" stroke-dashoffset="0" style="mix-blend-mode: normal"><path d="M320.22553,179.00483c0.426,0.028 0.844,0.11 1.242,0.264c0.488,0.188 0.938,0.474 1.318,0.834c0.426,0.406 0.762,0.908 0.974,1.458c0.166,0.43 0.25,0.88 0.266,1.34c0.014,1.034 0.002,2.066 0.002,3.1c-0.002,0.06 -0.002,0.076 -0.01,0.136c-0.022,0.158 -0.082,0.31 -0.174,0.44c-0.064,0.094 -0.146,0.176 -0.24,0.24c-0.342,0.242 -0.81,0.242 -1.152,0c-0.112,-0.078 -0.208,-0.18 -0.278,-0.296c-0.086,-0.14 -0.128,-0.29 -0.144,-0.452c-0.036,-1.038 0.01,-2.078 -0.002,-3.118c-0.008,-0.214 -0.046,-0.422 -0.118,-0.624c-0.2,-0.56 -0.648,-1.008 -1.208,-1.208c-0.22,-0.08 -0.448,-0.116 -0.68,-0.118h-1.994v5l-0.002,0.068c-0.016,0.162 -0.058,0.312 -0.144,0.452c-0.058,0.096 -0.134,0.184 -0.222,0.256c-0.306,0.248 -0.742,0.294 -1.092,0.112c-0.102,-0.052 -0.194,-0.122 -0.27,-0.206c-0.11,-0.116 -0.19,-0.258 -0.232,-0.412c-0.02,-0.066 -0.028,-0.134 -0.036,-0.202c-0.138,-4.02 -0.002,-8.046 -0.002,-12.068c0.006,-0.162 0.038,-0.316 0.112,-0.46c0.062,-0.122 0.15,-0.23 0.256,-0.316c0.09,-0.072 0.19,-0.128 0.298,-0.166c0.084,-0.03 0.174,-0.05 0.266,-0.056c0.344,-0.024 0.686,0.138 0.884,0.422c0.092,0.13 0.152,0.282 0.174,0.44c0.008,0.06 0.008,0.076 0.01,0.136v5c0.702,0 1.468,-0.022 2.198,0.004z"/></g></g></svg>