<svg version="1.1" xmlns="http://www.w3.org/2000/svg" xmlns:xlink="http://www.w3.org/1999/xlink" width="5.02909" height="14.01195" viewBox="0,0,5.02909,14.01195"><g transform="translate(-317.48546,-172.99402)"><g data-paper-data="{&quot;isPaintingLayer&quot;:true}" fill="#000000" fill-rule="nonzero" stroke="none" stroke-width="2" stroke-linecap="butt" stroke-linejoin="miter" stroke-miterlimit="10" stroke-dasharray="" stroke-dashoffset="0" style="mix-blend-mode: normal"><path d="M321.3982,172.99702c0.112,0.006 0.226,0.01 0.336,0.034c0.246,0.056 0.466,0.206 0.606,0.414c0.064,0.094 0.112,0.198 0.142,0.308c0.106,0.406 -0.06,0.846 -0.406,1.08c-0.132,0.09 -0.284,0.148 -0.442,0.166c-0.062,0.008 -0.076,0.006 -0.138,0.008c-0.076,-0.004 -0.154,-0.012 -0.23,-0.014c-0.154,0 -0.306,0.018 -0.454,0.06c-0.114,0.032 -0.224,0.078 -0.326,0.134c-0.426,0.234 -0.726,0.652 -0.87,1.11c-0.066,0.208 -0.096,0.424 -0.102,0.644c-0.002,0.488 0.006,0.98 0.01,1.468l0.002,0.598h1.988c0.06,0.002 0.076,0.002 0.136,0.01c0.158,0.022 0.31,0.082 0.44,0.174c0.284,0.198 0.446,0.54 0.422,0.884c-0.006,0.092 -0.026,0.182 -0.056,0.266c-0.038,0.108 -0.094,0.208 -0.166,0.298c-0.086,0.106 -0.194,0.192 -0.316,0.256c-0.144,0.074 -0.298,0.106 -0.46,0.112h-1.986c0,1.366 -0.004,2.732 -0.01,4.098l-0.004,0.908c-0.002,0.06 -0.002,0.074 -0.01,0.134c-0.022,0.158 -0.082,0.31 -0.176,0.44c-0.242,0.34 -0.684,0.496 -1.086,0.382c-0.11,-0.03 -0.214,-0.08 -0.306,-0.146c-0.112,-0.078 -0.206,-0.18 -0.276,-0.298c-0.086,-0.138 -0.128,-0.29 -0.144,-0.45c-0.068,-2.022 -0.002,-4.046 -0.002,-6.068c0.002,-0.068 0.002,-0.068 0.01,-0.136l0.004,-0.026c-0.002,-0.714 -0.004,-1.43 -0.008,-2.144c-0.002,-0.264 -0.006,-0.526 -0.006,-0.79c0.004,-0.104 0.004,-0.104 0.008,-0.21c0.036,-0.474 0.138,-0.938 0.324,-1.378c0.4,-0.946 1.162,-1.73 2.128,-2.098c0.356,-0.134 0.726,-0.206 1.106,-0.228c0.106,-0.004 0.212,-0.004 0.318,0z"/></g></g></svg>