<svg version="1.1" xmlns="http://www.w3.org/2000/svg" xmlns:xlink="http://www.w3.org/1999/xlink" width="8.04371" height="13.99735" viewBox="0,0,8.04371,13.99735"><g transform="translate(-315.97814,-173.00132)"><g data-paper-data="{&quot;isPaintingLayer&quot;:true}" fill="#000000" fill-rule="nonzero" stroke="none" stroke-width="2" stroke-linecap="butt" stroke-linejoin="miter" stroke-miterlimit="10" stroke-dasharray="" stroke-dashoffset="0" style="mix-blend-mode: normal"><path d="M320.124,173.00211c0.17,0.006 0.338,0.018 0.506,0.044c0.39,0.06 0.772,0.178 1.126,0.348c0.464,0.224 0.882,0.536 1.226,0.916c0.326,0.358 0.586,0.774 0.762,1.224c0.158,0.402 0.252,0.83 0.272,1.262c0.024,0.436 -0.026,0.878 -0.146,1.298c-0.142,0.5 -0.382,0.968 -0.702,1.376c-0.416,0.53 -0.968,0.952 -1.588,1.216c-0.336,0.14 -0.69,0.236 -1.05,0.282c-0.166,0.022 -0.334,0.03 -0.502,0.032h-2.006v5l-0.002,0.068c-0.008,0.068 -0.016,0.136 -0.036,0.202c-0.042,0.154 -0.122,0.296 -0.232,0.412c-0.268,0.288 -0.694,0.392 -1.064,0.26c-0.108,-0.038 -0.208,-0.094 -0.298,-0.166c-0.088,-0.072 -0.164,-0.16 -0.222,-0.256c-0.086,-0.14 -0.128,-0.29 -0.144,-0.452c-0.102,-3.022 -0.002,-6.05 -0.002,-9.074c0.006,-0.436 0.07,-0.864 0.21,-1.276c0.364,-1.074 1.188,-1.962 2.232,-2.404c0.304,-0.128 0.624,-0.218 0.95,-0.268c0.134,-0.02 0.268,-0.032 0.404,-0.04c0.102,-0.004 0.204,-0.006 0.306,-0.004zM319.97,175.00011c-0.218,0.01 -0.43,0.046 -0.636,0.122c-0.548,0.2 -0.99,0.642 -1.19,1.19c-0.082,0.224 -0.118,0.456 -0.122,0.694v1.994c0.684,0 1.368,0.008 2.052,0c0.052,-0.002 0.102,-0.006 0.154,-0.01c0.278,-0.032 0.546,-0.114 0.788,-0.254c0.45,-0.258 0.788,-0.69 0.93,-1.188c0.064,-0.228 0.088,-0.466 0.07,-0.702c-0.014,-0.182 -0.052,-0.362 -0.116,-0.534c-0.082,-0.226 -0.208,-0.438 -0.366,-0.62c-0.168,-0.194 -0.374,-0.356 -0.602,-0.474c-0.252,-0.128 -0.524,-0.198 -0.806,-0.216c-0.052,-0.002 -0.104,-0.002 -0.156,-0.002z"/></g></g></svg>