<svg version="1.1" xmlns="http://www.w3.org/2000/svg" xmlns:xlink="http://www.w3.org/1999/xlink" width="8.01617" height="13.99984" viewBox="0,0,8.01617,13.99984"><g transform="translate(-315.99192,-173.00008)"><g data-paper-data="{&quot;isPaintingLayer&quot;:true}" fill="#000000" fill-rule="nonzero" stroke="none" stroke-width="2" stroke-linecap="butt" stroke-linejoin="miter" stroke-miterlimit="10" stroke-dasharray="" stroke-dashoffset="0" style="mix-blend-mode: normal"><path d="M320.09377,173.00158c0.136,0.004 0.272,0.012 0.406,0.03c0.328,0.042 0.652,0.124 0.958,0.246c1.056,0.416 1.902,1.282 2.292,2.346c0.15,0.41 0.224,0.838 0.24,1.274c0.04,3.034 0.002,6.068 0.002,9.102c-0.002,0.06 -0.002,0.076 -0.01,0.136c-0.022,0.158 -0.082,0.31 -0.174,0.44c-0.198,0.284 -0.54,0.446 -0.884,0.422c-0.092,-0.006 -0.182,-0.026 -0.266,-0.056c-0.108,-0.038 -0.208,-0.094 -0.298,-0.166c-0.106,-0.086 -0.192,-0.194 -0.256,-0.316c-0.074,-0.144 -0.106,-0.298 -0.112,-0.46v-5c-0.7,0 -1.402,0.008 -2.102,-0.002c-0.102,-0.004 -0.102,-0.004 -0.204,-0.01c-0.168,-0.014 -0.334,-0.036 -0.5,-0.07c-0.32,-0.064 -0.634,-0.17 -0.928,-0.312c-1.022,-0.494 -1.804,-1.42 -2.114,-2.512c-0.12,-0.42 -0.17,-0.862 -0.146,-1.298c0.02,-0.432 0.114,-0.86 0.272,-1.262c0.176,-0.45 0.436,-0.866 0.762,-1.224c0.344,-0.38 0.762,-0.692 1.226,-0.916c0.354,-0.17 0.736,-0.288 1.126,-0.348c0.168,-0.026 0.336,-0.038 0.506,-0.044c0.102,-0.002 0.102,-0.002 0.204,0zM319.99177,174.99958c-0.268,0.004 -0.53,0.052 -0.778,0.156c-0.538,0.228 -0.958,0.692 -1.132,1.248c-0.07,0.226 -0.1,0.464 -0.088,0.7c0.012,0.232 0.064,0.46 0.154,0.674c0.094,0.222 0.23,0.428 0.396,0.602c0.178,0.186 0.39,0.338 0.626,0.444c0.262,0.118 0.542,0.172 0.828,0.176h1.994c0,-0.684 0.008,-1.368 0,-2.052c-0.002,-0.052 -0.006,-0.102 -0.01,-0.154c-0.022,-0.196 -0.07,-0.39 -0.146,-0.572c-0.202,-0.476 -0.59,-0.864 -1.066,-1.066c-0.198,-0.084 -0.408,-0.13 -0.624,-0.15c-0.05,-0.004 -0.102,-0.006 -0.154,-0.006z"/></g></g></svg>