<svg version="1.1" xmlns="http://www.w3.org/2000/svg" xmlns:xlink="http://www.w3.org/1999/xlink" width="8.10094" height="13.99806" viewBox="0,0,8.10094,13.99806"><g transform="translate(-315.94953,-173.00097)"><g data-paper-data="{&quot;isPaintingLayer&quot;:true}" fill="#000000" fill-rule="nonzero" stroke="none" stroke-width="2" stroke-linecap="butt" stroke-linejoin="miter" stroke-miterlimit="10" stroke-dasharray="" stroke-dashoffset="0" style="mix-blend-mode: normal"><path d="M316.05303,173.93166c0.016,-0.162 0.058,-0.312 0.144,-0.452c0.07,-0.116 0.166,-0.218 0.278,-0.296c0.092,-0.066 0.196,-0.116 0.306,-0.146c0.404,-0.114 0.846,0.044 1.086,0.386c0.092,0.13 0.152,0.282 0.174,0.44c0.008,0.06 0.008,0.076 0.01,0.136v7.382l4.552,-2.276l0.062,-0.028c0.058,-0.022 0.072,-0.03 0.13,-0.044c0.154,-0.042 0.318,-0.044 0.474,-0.01c0.408,0.092 0.724,0.438 0.774,0.854c0.014,0.114 0.008,0.228 -0.016,0.34c-0.03,0.132 -0.086,0.26 -0.168,0.37c-0.096,0.132 -0.218,0.23 -0.36,0.306l-4.212,2.106l4.212,2.106l0.06,0.032c0.136,0.086 0.252,0.192 0.338,0.33c0.074,0.116 0.122,0.246 0.142,0.382c0.064,0.414 -0.146,0.834 -0.516,1.032c-0.1,0.052 -0.208,0.09 -0.322,0.106c-0.158,0.024 -0.32,0.01 -0.472,-0.042c-0.056,-0.018 -0.07,-0.026 -0.126,-0.052l-4.552,-2.276v1.382l-0.002,0.068c-0.008,0.068 -0.016,0.136 -0.036,0.202c-0.042,0.154 -0.122,0.296 -0.232,0.412c-0.076,0.084 -0.168,0.154 -0.27,0.206c-0.35,0.182 -0.786,0.136 -1.092,-0.112c-0.088,-0.072 -0.164,-0.16 -0.222,-0.256c-0.086,-0.14 -0.128,-0.29 -0.144,-0.452c-0.138,-4.042 -0.138,-8.094 0,-12.136z"/></g></g></svg>