<svg version="1.1" xmlns="http://www.w3.org/2000/svg" xmlns:xlink="http://www.w3.org/1999/xlink" width="8.08138" height="13.99952" viewBox="0,0,8.08138,13.99952"><g transform="translate(-315.95931,-173.00024)"><g data-paper-data="{&quot;isPaintingLayer&quot;:true}" fill="#000000" fill-rule="nonzero" stroke="none" stroke-width="1" stroke-linecap="butt" stroke-linejoin="miter" stroke-miterlimit="10" stroke-dasharray="" stroke-dashoffset="0" style="mix-blend-mode: normal"><path d="M320.97768,184.51774l0.003,0.031c0.007,0.07 0.027,0.136 0.062,0.197c0.03,0.054 0.071,0.102 0.118,0.141c0.048,0.039 0.102,0.068 0.16,0.088c0.22,0.072 0.467,-0.02 0.586,-0.219c0.038,-0.063 0.06,-0.134 0.068,-0.207c0.307,-3.503 0.003,-7.033 0.003,-10.549c0.004,-0.115 0.019,-0.226 0.058,-0.335c0.1,-0.281 0.326,-0.507 0.607,-0.607c0.087,-0.031 0.175,-0.046 0.267,-0.056c0.069,-0.002 0.068,-0.002 0.136,0c0.115,0.012 0.224,0.035 0.33,0.081c0.253,0.109 0.452,0.323 0.544,0.582c0.031,0.087 0.046,0.175 0.056,0.267c0.121,3.541 0.044,7.087 0.001,10.63c-0.013,0.369 -0.099,0.73 -0.265,1.061c-0.101,0.201 -0.23,0.388 -0.381,0.555c-0.499,0.551 -1.234,0.856 -1.977,0.819c-0.245,-0.012 -0.488,-0.061 -0.719,-0.143c-0.235,-0.085 -0.458,-0.204 -0.658,-0.354c-0.463,0.345 -1.041,0.526 -1.623,0.497c-0.245,-0.012 -0.488,-0.061 -0.719,-0.143c-0.288,-0.104 -0.557,-0.26 -0.789,-0.46c-0.249,-0.214 -0.454,-0.478 -0.602,-0.771c-0.166,-0.331 -0.252,-0.692 -0.265,-1.061c-0.043,-3.52 -0.001,-7.041 -0.001,-10.562c0.006,-0.162 0.037,-0.316 0.112,-0.46c0.063,-0.121 0.151,-0.229 0.257,-0.316c0.325,-0.264 0.793,-0.296 1.151,-0.078c0.097,0.059 0.184,0.135 0.256,0.223c0.1,0.124 0.171,0.271 0.203,0.428c0.012,0.059 0.012,0.074 0.019,0.135c0.121,3.537 -0.304,7.092 0.005,10.617c0.007,0.07 0.027,0.136 0.062,0.197c0.03,0.054 0.071,0.102 0.118,0.141c0.048,0.039 0.102,0.068 0.16,0.088c0.22,0.072 0.467,-0.02 0.586,-0.219c0.038,-0.063 0.06,-0.134 0.068,-0.207l0.003,-0.031c-0.042,-3.506 0,-7.012 0,-10.518l0.001,-0.015v-0.002c0.004,-0.109 0.02,-0.214 0.057,-0.318c0.01,-0.027 0.021,-0.055 0.033,-0.081c0.006,-0.015 0.014,-0.029 0.021,-0.044c0.063,-0.121 0.151,-0.229 0.257,-0.316c0.041,-0.033 0.084,-0.063 0.129,-0.089c0.053,-0.03 0.109,-0.057 0.167,-0.077c0.087,-0.031 0.175,-0.046 0.267,-0.056c0.069,-0.002 0.068,-0.002 0.136,0c0.092,0.01 0.18,0.025 0.267,0.056c0.034,0.012 0.067,0.026 0.099,0.041c0.029,0.014 0.058,0.03 0.086,0.047c0.097,0.059 0.184,0.135 0.256,0.223c0.036,0.044 0.068,0.091 0.095,0.14l0.006,0.01c0.014,0.027 0.028,0.054 0.04,0.083c0.005,0.011 0.01,0.022 0.014,0.034c0.021,0.052 0.037,0.106 0.048,0.161c0.011,0.052 0.012,0.07 0.017,0.114l0.002,0.021c0.12,3.527 0.045,7.058 0.002,10.586z"/></g></g></svg>