<svg version="1.1" xmlns="http://www.w3.org/2000/svg" xmlns:xlink="http://www.w3.org/1999/xlink" width="5.05928" height="14.02322" viewBox="0,0,5.05928,14.02322"><g transform="translate(-317.47036,-172.98839)"><g data-paper-data="{&quot;isPaintingLayer&quot;:true}" fill="#000000" fill-rule="nonzero" stroke="none" stroke-width="1" stroke-linecap="butt" stroke-linejoin="miter" stroke-miterlimit="10" stroke-dasharray="" stroke-dashoffset="0" style="mix-blend-mode: normal"><path d="M321.53823,173.01464c0.115,0.012 0.224,0.035 0.33,0.081c0.253,0.109 0.452,0.323 0.544,0.582c0.031,0.087 0.046,0.175 0.056,0.267c0.137,4.02 0.002,8.045 0.002,12.068c-0.006,0.162 -0.037,0.316 -0.112,0.46c-0.063,0.121 -0.151,0.229 -0.257,0.316c-0.268,0.218 -0.64,0.282 -0.966,0.166c-0.086,-0.03 -0.167,-0.073 -0.242,-0.125c-0.093,-0.066 -0.174,-0.147 -0.24,-0.24c-0.092,-0.131 -0.152,-0.283 -0.174,-0.441c-0.008,-0.06 -0.007,-0.075 -0.009,-0.136v-11h-2l-0.068,-0.002c-0.069,-0.007 -0.135,-0.016 -0.202,-0.035c-0.153,-0.043 -0.296,-0.123 -0.413,-0.232c-0.083,-0.078 -0.153,-0.17 -0.205,-0.271c-0.052,-0.101 -0.087,-0.211 -0.103,-0.324c-0.053,-0.39 0.135,-0.786 0.471,-0.99c0.14,-0.085 0.291,-0.127 0.452,-0.144c1.045,-0.035 2.091,-0.035 3.136,0z"/></g></g></svg>