<svg version="1.1" xmlns="http://www.w3.org/2000/svg" xmlns:xlink="http://www.w3.org/1999/xlink" width="7.99718" height="14.0505" viewBox="0,0,7.99718,14.0505"><g transform="translate(-316.00141,-172.97475)"><g data-paper-data="{&quot;isPaintingLayer&quot;:true}" fill="#000000" fill-rule="nonzero" stroke="none" stroke-width="1.76777" stroke-linecap="butt" stroke-linejoin="miter" stroke-miterlimit="10" stroke-dasharray="" stroke-dashoffset="0" style="mix-blend-mode: normal"><path d="M323.06782,173.02725c0.0615,0.006 0.0765,0.006 0.1365,0.018c0.156,0.034 0.303,0.104 0.4275,0.204c0.0885,0.072 0.1635,0.16 0.2235,0.256c0.2175,0.358 0.1845,0.826 -0.0795,1.152c-0.0855,0.106 -0.1935,0.192 -0.315,0.256c-0.1455,0.074 -0.2985,0.106 -0.4605,0.112h-1.9995c0,0 0,8.118 0,11c0,0.266 -0.1065,0.52 -0.294,0.708c-0.1875,0.186 -0.441,0.292 -0.7065,0.292c-0.2655,0 -0.519,-0.106 -0.7065,-0.292c-0.1875,-0.188 -0.294,-0.442 -0.294,-0.708c0,-2.882 0,-11 0,-11h-1.9995c-0.162,-0.006 -0.315,-0.038 -0.4605,-0.112c-0.1215,-0.064 -0.2295,-0.15 -0.315,-0.256c-0.072,-0.09 -0.129,-0.19 -0.1665,-0.298c-0.141,-0.394 -0.0135,-0.846 0.3105,-1.11c0.1245,-0.1 0.2715,-0.17 0.4275,-0.204c0.06,-0.012 0.075,-0.012 0.1365,-0.018c2.043,-0.07 4.092,-0.07 6.135,0z"/></g></g></svg>