<svg version="1.1" xmlns="http://www.w3.org/2000/svg" xmlns:xlink="http://www.w3.org/1999/xlink" width="8.02375" height="14.01744" viewBox="0,0,8.02375,14.01744"><g transform="translate(-315.98813,-172.99128)"><g data-paper-data="{&quot;isPaintingLayer&quot;:true}" fill="#000000" fill-rule="nonzero" stroke="none" stroke-width="2" stroke-linecap="butt" stroke-linejoin="miter" stroke-miterlimit="10" stroke-dasharray="" stroke-dashoffset="0" style="mix-blend-mode: normal"><path d="M323.06623,173.01086c0.068,0.008 0.136,0.016 0.202,0.036c0.154,0.042 0.296,0.122 0.412,0.232c0.084,0.076 0.154,0.168 0.206,0.27c0.052,0.102 0.088,0.212 0.102,0.324c0.054,0.39 -0.134,0.786 -0.47,0.99c-0.14,0.086 -0.29,0.128 -0.452,0.144c-1.04,0.036 -2.08,-0.01 -3.12,0.002c-0.234,0.01 -0.464,0.052 -0.682,0.138c-0.526,0.208 -0.95,0.642 -1.144,1.174c-0.076,0.204 -0.112,0.418 -0.122,0.636c-0.024,2.034 -0.024,4.07 0,6.104c0.01,0.266 0.066,0.528 0.176,0.77c0.24,0.532 0.714,0.942 1.276,1.102c0.212,0.06 0.432,0.084 0.652,0.074c0.216,-0.012 0.428,-0.058 0.63,-0.136c0.224,-0.09 0.432,-0.218 0.61,-0.382c0.19,-0.172 0.348,-0.382 0.46,-0.614c0.122,-0.256 0.184,-0.532 0.196,-0.814c0.012,-1.018 0,-2.034 0,-3.052c0.006,-0.162 0.038,-0.316 0.112,-0.46c0.062,-0.122 0.15,-0.23 0.256,-0.316c0.09,-0.072 0.19,-0.128 0.298,-0.166c0.394,-0.14 0.846,-0.014 1.11,0.31c0.1,0.124 0.17,0.272 0.204,0.428c0.012,0.06 0.012,0.076 0.018,0.136c0.034,1.024 0.002,2.05 0.002,3.074c-0.002,0.168 -0.01,0.336 -0.032,0.502c-0.046,0.36 -0.142,0.714 -0.282,1.05c-0.276,0.65 -0.726,1.224 -1.292,1.646c-0.39,0.292 -0.832,0.512 -1.3,0.644c-0.42,0.12 -0.862,0.17 -1.3,0.146c-0.43,-0.02 -0.858,-0.114 -1.26,-0.272c-0.45,-0.176 -0.866,-0.436 -1.224,-0.762c-0.38,-0.344 -0.692,-0.762 -0.916,-1.226c-0.17,-0.354 -0.288,-0.736 -0.348,-1.126c-0.026,-0.168 -0.038,-0.336 -0.044,-0.506c-0.026,-2.036 -0.002,-4.072 -0.002,-6.108c0.006,-0.436 0.07,-0.864 0.21,-1.276c0.374,-1.106 1.238,-2.012 2.324,-2.44c0.306,-0.122 0.63,-0.204 0.958,-0.246c0.134,-0.018 0.27,-0.026 0.406,-0.03c1.056,-0.014 2.114,-0.036 3.17,0z"/></g></g></svg>