<svg version="1.1" xmlns="http://www.w3.org/2000/svg" xmlns:xlink="http://www.w3.org/1999/xlink" width="8.05956" height="14.00376" viewBox="0,0,8.05956,14.00376"><g transform="translate(-315.97022,-172.99812)"><g data-paper-data="{&quot;isPaintingLayer&quot;:true}" fill="#000000" fill-rule="nonzero" stroke="none" stroke-width="2" stroke-linecap="butt" stroke-linejoin="miter" stroke-miterlimit="10" stroke-dasharray="" stroke-dashoffset="0" style="mix-blend-mode: normal"><path d="M320.23408,179.00309c0.17,0.01 0.336,0.026 0.502,0.056c0.356,0.064 0.704,0.176 1.028,0.332c0.636,0.308 1.188,0.784 1.582,1.368c0.256,0.378 0.444,0.798 0.558,1.24c0.1,0.392 0.142,0.798 0.12,1.202c-0.02,0.432 -0.114,0.86 -0.272,1.262c-0.176,0.45 -0.436,0.866 -0.762,1.224c-0.344,0.38 -0.762,0.692 -1.226,0.916c-0.354,0.17 -0.736,0.288 -1.126,0.348c-0.168,0.026 -0.336,0.038 -0.506,0.044c-1.034,0.014 -2.068,0.002 -3.102,0.002c-0.092,-0.004 -0.18,-0.012 -0.27,-0.038c-0.288,-0.08 -0.528,-0.29 -0.648,-0.564c-0.046,-0.106 -0.068,-0.216 -0.08,-0.33c-0.138,-4.02 -0.002,-8.046 -0.002,-12.068c0.002,-0.06 0.002,-0.076 0.01,-0.136c0.022,-0.158 0.082,-0.31 0.174,-0.44c0.052,-0.076 0.114,-0.142 0.184,-0.2c0.27,-0.218 0.64,-0.282 0.966,-0.166c0.108,0.038 0.208,0.094 0.298,0.166c0.106,0.086 0.194,0.194 0.256,0.316c0.074,0.144 0.106,0.298 0.112,0.46v5c0.706,0 1.474,-0.022 2.204,0.006zM320.02408,184.99709c0.286,-0.004 0.566,-0.058 0.828,-0.176c0.236,-0.106 0.448,-0.258 0.626,-0.444c0.166,-0.174 0.302,-0.38 0.396,-0.602c0.082,-0.198 0.134,-0.408 0.15,-0.622c0.018,-0.238 -0.006,-0.476 -0.07,-0.704c-0.164,-0.578 -0.594,-1.062 -1.146,-1.296c-0.25,-0.104 -0.514,-0.152 -0.784,-0.156h-1.994v4c0.664,0 1.33,0 1.994,0z"/></g></g></svg>