<svg version="1.1" xmlns="http://www.w3.org/2000/svg" xmlns:xlink="http://www.w3.org/1999/xlink" width="5.0996" height="13.99736" viewBox="0,0,5.0996,13.99736"><g transform="translate(-317.4502,-173.00132)"><g data-paper-data="{&quot;isPaintingLayer&quot;:true}" fill="#000000" fill-rule="nonzero" stroke="none" stroke-width="2" stroke-linecap="butt" stroke-linejoin="miter" stroke-miterlimit="10" stroke-dasharray="" stroke-dashoffset="0" style="mix-blend-mode: normal"><path d="M317.5537,173.93201c0.016,-0.162 0.058,-0.312 0.144,-0.452c0.07,-0.116 0.166,-0.218 0.278,-0.296c0.092,-0.066 0.196,-0.116 0.306,-0.146c0.404,-0.114 0.846,0.044 1.086,0.386c0.092,0.13 0.152,0.282 0.174,0.44c0.008,0.06 0.008,0.076 0.01,0.136v5h2l0.068,0.002c0.06,0.006 0.076,0.006 0.136,0.018c0.156,0.034 0.304,0.104 0.428,0.204c0.088,0.072 0.164,0.16 0.222,0.256c0.218,0.358 0.186,0.826 -0.078,1.152c-0.086,0.106 -0.194,0.194 -0.316,0.256c-0.144,0.074 -0.298,0.106 -0.46,0.112h-2v5l-0.002,0.068c-0.016,0.162 -0.058,0.312 -0.144,0.452c-0.058,0.096 -0.134,0.184 -0.222,0.256c-0.306,0.248 -0.742,0.294 -1.092,0.112c-0.102,-0.052 -0.194,-0.122 -0.27,-0.206c-0.11,-0.116 -0.19,-0.258 -0.232,-0.412c-0.02,-0.066 -0.028,-0.134 -0.036,-0.202c-0.138,-4.042 -0.138,-8.094 0,-12.136z"/></g></g></svg>