<svg version="1.1" xmlns="http://www.w3.org/2000/svg" xmlns:xlink="http://www.w3.org/1999/xlink" width="2.03893" height="4.99843" viewBox="0,0,2.03893,4.99843"><g transform="translate(-318.8786,-180.21931)"><g data-paper-data="{&quot;isPaintingLayer&quot;:true}" fill="#000000" fill-rule="nonzero" stroke="none" stroke-width="1" stroke-linecap="butt" stroke-linejoin="miter" stroke-miterlimit="10" stroke-dasharray="" stroke-dashoffset="0" style="mix-blend-mode: normal"><path d="M319.9431,180.21969c0.104,0.008 0.205,0.027 0.303,0.064c0.249,0.094 0.453,0.289 0.56,0.532c0.047,0.107 0.073,0.219 0.083,0.334c0.053,1.033 0.019,2.069 0.001,3.104c-0.007,0.15 -0.043,0.296 -0.114,0.43c-0.058,0.112 -0.139,0.213 -0.235,0.295c-0.087,0.075 -0.188,0.134 -0.295,0.175c-0.35,0.133 -0.755,0.055 -1.031,-0.198c-0.076,-0.07 -0.142,-0.152 -0.193,-0.242c-0.081,-0.142 -0.122,-0.298 -0.13,-0.46c-0.018,-1.023 -0.018,-2.047 0,-3.07c0.005,-0.104 0.023,-0.205 0.058,-0.303c0.09,-0.251 0.281,-0.459 0.523,-0.57c0.105,-0.049 0.217,-0.076 0.332,-0.088c0.046,-0.003 0.092,-0.004 0.138,-0.003z"/></g></g></svg>