<svg version="1.1" xmlns="http://www.w3.org/2000/svg" xmlns:xlink="http://www.w3.org/1999/xlink" width="8.00588" height="14.02855" viewBox="0,0,8.00588,14.02855"><g transform="translate(-315.99706,-172.98572)"><g data-paper-data="{&quot;isPaintingLayer&quot;:true}" fill="#000000" fill-rule="nonzero" stroke="none" stroke-width="1" stroke-linecap="butt" stroke-linejoin="miter" stroke-miterlimit="10" stroke-dasharray="" stroke-dashoffset="0" style="mix-blend-mode: normal"><path d="M320.10094,172.98608c0.435,0.017 0.862,0.092 1.272,0.242c1.065,0.39 1.932,1.236 2.347,2.29c0.122,0.308 0.204,0.631 0.246,0.959c0.017,0.135 0.026,0.27 0.031,0.405c0.008,0.653 0.008,1.307 0,1.96c-0.01,0.263 -0.039,0.523 -0.097,0.78c-0.115,0.509 -0.33,0.994 -0.629,1.421c-0.132,0.187 -0.28,0.36 -0.44,0.523l-3.419,3.419h3.586l0.068,0.002c0.161,0.017 0.312,0.059 0.452,0.144c0.336,0.204 0.524,0.6 0.471,0.99c-0.016,0.113 -0.051,0.223 -0.103,0.324c-0.053,0.101 -0.122,0.193 -0.205,0.271c-0.117,0.109 -0.26,0.189 -0.413,0.232c-0.067,0.019 -0.133,0.028 -0.202,0.035c-2.021,0.069 -4.045,0.002 -6.068,0.002c-0.159,-0.005 -0.311,-0.036 -0.454,-0.109c-0.325,-0.165 -0.538,-0.504 -0.546,-0.869c-0.002,-0.089 0.008,-0.179 0.03,-0.266c0.04,-0.156 0.116,-0.291 0.217,-0.414c1.675,-1.792 3.489,-3.45 5.202,-5.206c0.089,-0.097 0.171,-0.199 0.242,-0.31c0.193,-0.307 0.295,-0.658 0.308,-1.019c0.008,-0.62 0.008,-1.239 0,-1.859c-0.01,-0.267 -0.065,-0.527 -0.175,-0.771c-0.262,-0.578 -0.798,-1.009 -1.42,-1.136c-0.233,-0.048 -0.475,-0.054 -0.71,-0.018c-0.226,0.035 -0.446,0.109 -0.647,0.218c-0.225,0.123 -0.427,0.289 -0.591,0.487c-0.217,0.263 -0.365,0.581 -0.425,0.917c-0.021,0.12 -0.029,0.24 -0.031,0.361c0,0.002 0,-0.008 0,-0.006c-0.001,0.023 -0.002,0.045 -0.002,0.068l-0.007,0.068c-0.012,0.068 -0.026,0.134 -0.049,0.199c-0.053,0.15 -0.143,0.287 -0.259,0.396c-0.084,0.078 -0.18,0.141 -0.285,0.186c-0.361,0.157 -0.793,0.083 -1.081,-0.186c-0.083,-0.078 -0.152,-0.17 -0.205,-0.271c-0.052,-0.101 -0.087,-0.211 -0.103,-0.324c-0.015,-0.112 -0.01,-0.228 -0.004,-0.341c0.017,-0.334 0.076,-0.665 0.175,-0.984c0.163,-0.525 0.436,-1.014 0.796,-1.429c0.421,-0.486 0.959,-0.868 1.557,-1.104c0.405,-0.16 0.829,-0.245 1.262,-0.273c0.103,-0.004 0.205,-0.005 0.308,-0.004z"/></g></g></svg>