<svg version="1.1" xmlns="http://www.w3.org/2000/svg" xmlns:xlink="http://www.w3.org/1999/xlink" width="7.99936" height="14.27009" viewBox="0,0,7.99936,14.27009"><g transform="translate(-316.00032,-172.86496)"><g data-paper-data="{&quot;isPaintingLayer&quot;:true}" fill="#000000" fill-rule="nonzero" stroke="none" stroke-width="1" stroke-linecap="butt" stroke-linejoin="miter" stroke-miterlimit="10" stroke-dasharray="" stroke-dashoffset="0" style="mix-blend-mode: normal"><path d="M320.06388,184.62604c0.188,0.015 0.368,0.06 0.534,0.151c0.342,0.185 0.584,0.528 0.642,0.912c0.02,0.126 0.02,0.256 0,0.382c-0.018,0.122 -0.055,0.242 -0.109,0.353c-0.061,0.127 -0.144,0.244 -0.244,0.343c-0.114,0.115 -0.25,0.206 -0.399,0.269c-0.154,0.066 -0.321,0.099 -0.488,0.099c-0.168,0 -0.335,-0.033 -0.489,-0.099c-0.149,-0.063 -0.285,-0.154 -0.399,-0.269c-0.099,-0.099 -0.182,-0.216 -0.244,-0.343c-0.053,-0.111 -0.09,-0.231 -0.109,-0.353c-0.019,-0.126 -0.019,-0.256 0,-0.382c0.059,-0.384 0.301,-0.727 0.642,-0.912c0.167,-0.091 0.346,-0.136 0.534,-0.151c0.065,-0.001 0.065,-0.001 0.129,0zM320.09888,172.88104c0.165,0.006 0.328,0.018 0.491,0.043c0.387,0.058 0.765,0.172 1.119,0.339c0.445,0.211 0.849,0.503 1.188,0.86c0.316,0.331 0.574,0.718 0.76,1.137c0.158,0.357 0.264,0.738 0.312,1.127c0.054,0.432 0.037,0.872 -0.051,1.298c-0.188,0.922 -0.709,1.76 -1.448,2.341c-0.305,0.24 -0.643,0.434 -1.003,0.576c-0.153,0.06 -0.309,0.109 -0.467,0.152v1.126c-0.005,0.151 -0.033,0.297 -0.099,0.434c-0.057,0.118 -0.137,0.224 -0.235,0.312c-0.084,0.074 -0.18,0.135 -0.284,0.178c-0.086,0.036 -0.177,0.059 -0.27,0.07c-0.339,0.038 -0.682,-0.104 -0.894,-0.371c-0.131,-0.164 -0.199,-0.359 -0.217,-0.567c-0.019,-0.685 -0.001,-1.371 -0.001,-2.056c0.003,-0.112 0.018,-0.221 0.055,-0.328c0.104,-0.301 0.353,-0.539 0.658,-0.63c0.071,-0.021 0.144,-0.035 0.218,-0.04c0.092,-0.006 0.183,-0.004 0.274,-0.012c0.05,-0.006 0.1,-0.013 0.15,-0.021c0.241,-0.047 0.471,-0.13 0.681,-0.258c0.443,-0.269 0.772,-0.709 0.901,-1.211c0.054,-0.211 0.073,-0.431 0.057,-0.649c-0.016,-0.211 -0.065,-0.42 -0.147,-0.616c-0.094,-0.227 -0.229,-0.436 -0.398,-0.614c-0.17,-0.178 -0.372,-0.324 -0.595,-0.429c-0.253,-0.12 -0.526,-0.181 -0.805,-0.191c-1.016,-0.013 -2.033,-0.001 -3.049,-0.001c-0.209,-0.006 -0.408,-0.063 -0.579,-0.184c-0.092,-0.065 -0.172,-0.146 -0.237,-0.237c-0.054,-0.077 -0.097,-0.16 -0.128,-0.249c-0.113,-0.321 -0.051,-0.687 0.162,-0.953c0.081,-0.103 0.183,-0.189 0.298,-0.252c0.133,-0.074 0.277,-0.111 0.428,-0.123c1.051,-0.03 2.103,-0.014 3.155,-0.001z"/></g></g></svg>