<svg version="1.1" xmlns="http://www.w3.org/2000/svg" xmlns:xlink="http://www.w3.org/1999/xlink" width="7.9995" height="13.99975" viewBox="0,0,7.9995,13.99975"><g transform="translate(-316.00025,-173.00013)"><g data-paper-data="{&quot;isPaintingLayer&quot;:true}" fill="#000000" fill-rule="nonzero" stroke="none" stroke-width="1" stroke-linecap="butt" stroke-linejoin="miter" stroke-miterlimit="10" stroke-dasharray="" stroke-dashoffset="0" style="mix-blend-mode: normal"><path d="M317.356,180.00088c-0.039,-0.035 -0.078,-0.07 -0.115,-0.106c-0.349,-0.332 -0.637,-0.727 -0.846,-1.161c-0.171,-0.355 -0.289,-0.736 -0.349,-1.126c-0.061,-0.402 -0.061,-0.814 0,-1.216c0.06,-0.39 0.178,-0.771 0.349,-1.126c0.377,-0.783 1.011,-1.432 1.784,-1.828c0.38,-0.194 0.791,-0.327 1.213,-0.392c0.168,-0.026 0.336,-0.038 0.505,-0.045c0.103,-0.001 0.103,-0.001 0.206,0c0.169,0.007 0.337,0.019 0.505,0.045c0.422,0.065 0.833,0.198 1.213,0.392c0.773,0.396 1.407,1.045 1.784,1.828c0.171,0.355 0.289,0.736 0.349,1.126c0.061,0.402 0.061,0.814 0,1.216c-0.06,0.39 -0.178,0.771 -0.349,1.126c-0.209,0.434 -0.497,0.829 -0.846,1.161c-0.037,0.036 -0.076,0.071 -0.115,0.106c0.399,0.352 0.729,0.783 0.961,1.265c0.171,0.355 0.289,0.736 0.349,1.126c0.061,0.402 0.061,0.814 0,1.216c-0.06,0.39 -0.178,0.771 -0.349,1.126c-0.209,0.434 -0.497,0.829 -0.846,1.161c-0.349,0.333 -0.758,0.602 -1.202,0.79c-0.491,0.208 -1.023,0.315 -1.557,0.315c-0.534,0 -1.066,-0.107 -1.557,-0.315c-0.444,-0.188 -0.853,-0.457 -1.202,-0.79c-0.349,-0.332 -0.637,-0.727 -0.846,-1.161c-0.171,-0.355 -0.289,-0.736 -0.349,-1.126c-0.061,-0.402 -0.061,-0.814 0,-1.216c0.06,-0.39 0.178,-0.771 0.349,-1.126c0.232,-0.482 0.562,-0.913 0.961,-1.265zM319.948,181.00088c-0.299,0.011 -0.59,0.081 -0.857,0.217c-0.535,0.275 -0.93,0.789 -1.05,1.378c-0.048,0.233 -0.054,0.475 -0.018,0.709c0.03,0.194 0.089,0.384 0.174,0.561c0.105,0.217 0.249,0.415 0.424,0.581c0.174,0.167 0.379,0.302 0.602,0.396c0.245,0.104 0.511,0.157 0.777,0.157c0.266,0 0.532,-0.053 0.777,-0.157c0.223,-0.094 0.428,-0.229 0.602,-0.396c0.175,-0.166 0.319,-0.364 0.424,-0.581c0.085,-0.177 0.144,-0.367 0.174,-0.561c0.036,-0.234 0.03,-0.476 -0.018,-0.709c-0.117,-0.573 -0.493,-1.076 -1.007,-1.355c-0.263,-0.143 -0.551,-0.219 -0.848,-0.238c-0.052,-0.002 -0.104,-0.003 -0.156,-0.002zM319.948,175.00088c-0.299,0.011 -0.59,0.081 -0.857,0.217c-0.535,0.275 -0.93,0.789 -1.05,1.378c-0.048,0.233 -0.054,0.475 -0.018,0.709c0.03,0.194 0.089,0.384 0.174,0.561c0.105,0.217 0.249,0.415 0.424,0.581c0.174,0.167 0.379,0.302 0.602,0.396c0.245,0.104 0.511,0.157 0.777,0.157c0.266,0 0.532,-0.053 0.777,-0.157c0.223,-0.094 0.428,-0.229 0.602,-0.396c0.175,-0.166 0.319,-0.364 0.424,-0.581c0.085,-0.177 0.144,-0.367 0.174,-0.561c0.036,-0.234 0.03,-0.476 -0.018,-0.709c-0.117,-0.573 -0.493,-1.076 -1.007,-1.355c-0.263,-0.143 -0.551,-0.219 -0.848,-0.238c-0.052,-0.002 -0.104,-0.003 -0.156,-0.002z"/></g></g></svg>