<svg version="1.1" xmlns="http://www.w3.org/2000/svg" xmlns:xlink="http://www.w3.org/1999/xlink" width="8.09831" height="13.99796" viewBox="0,0,8.09831,13.99796"><g transform="translate(-315.95084,-173.00103)"><g data-paper-data="{&quot;isPaintingLayer&quot;:true}" fill="#000000" fill-rule="nonzero" stroke="none" stroke-width="2" stroke-linecap="butt" stroke-linejoin="miter" stroke-miterlimit="10" stroke-dasharray="" stroke-dashoffset="0" style="mix-blend-mode: normal"><path d="M323.9927,186.06888c-0.016,0.162 -0.058,0.312 -0.144,0.452c-0.07,0.116 -0.166,0.218 -0.278,0.296c-0.342,0.242 -0.81,0.242 -1.152,0c-0.094,-0.064 -0.176,-0.146 -0.24,-0.24c-0.092,-0.13 -0.152,-0.282 -0.174,-0.44c-0.008,-0.06 -0.008,-0.076 -0.01,-0.136v-5h-4v5c-0.006,0.162 -0.038,0.316 -0.112,0.46c-0.062,0.122 -0.15,0.23 -0.256,0.316c-0.326,0.264 -0.794,0.296 -1.152,0.078c-0.096,-0.058 -0.184,-0.134 -0.256,-0.222c-0.1,-0.124 -0.17,-0.272 -0.204,-0.428c-0.012,-0.06 -0.012,-0.076 -0.018,-0.136c-0.102,-3.022 -0.002,-6.05 -0.002,-9.074c0.002,-0.168 0.01,-0.336 0.032,-0.502c0.046,-0.36 0.142,-0.714 0.282,-1.05c0.276,-0.65 0.726,-1.224 1.292,-1.646c0.39,-0.292 0.832,-0.512 1.3,-0.644c0.42,-0.12 0.862,-0.17 1.3,-0.146c0.43,0.02 0.858,0.114 1.26,0.272c0.45,0.176 0.866,0.436 1.224,0.762c0.38,0.344 0.692,0.762 0.916,1.226c0.17,0.354 0.288,0.736 0.348,1.126c0.026,0.168 0.038,0.336 0.044,0.506c0.04,3.056 0.104,6.116 0,9.17zM319.9427,175.00088c-0.218,0.01 -0.43,0.046 -0.636,0.122c-0.548,0.2 -0.99,0.642 -1.19,1.19c-0.082,0.224 -0.118,0.456 -0.122,0.694v1.994h4c0,-0.684 0.008,-1.368 0,-2.052c-0.01,-0.234 -0.052,-0.464 -0.138,-0.682c-0.208,-0.526 -0.642,-0.95 -1.174,-1.144c-0.206,-0.076 -0.418,-0.112 -0.636,-0.122c-0.052,0 -0.052,0 -0.104,0z"/></g></g></svg>