<svg version="1.1" xmlns="http://www.w3.org/2000/svg" xmlns:xlink="http://www.w3.org/1999/xlink" width="8.16136" height="13.99647" viewBox="0,0,8.16136,13.99647"><g transform="translate(-315.91932,-173.00177)"><g data-paper-data="{&quot;isPaintingLayer&quot;:true}" fill="#000000" fill-rule="nonzero" stroke="none" stroke-width="2" stroke-linecap="butt" stroke-linejoin="miter" stroke-miterlimit="10" stroke-dasharray="" stroke-dashoffset="0" style="mix-blend-mode: normal"><path d="M316.02282,173.93127c0.016,-0.162 0.058,-0.312 0.144,-0.452c0.07,-0.116 0.166,-0.218 0.278,-0.296c0.342,-0.242 0.81,-0.242 1.152,0c0.094,0.064 0.176,0.146 0.24,0.24c0.092,0.13 0.152,0.282 0.174,0.44c0.008,0.06 0.008,0.076 0.01,0.136v5h4v-5c0.002,-0.06 0.002,-0.076 0.01,-0.136c0.022,-0.158 0.082,-0.31 0.174,-0.44c0.064,-0.094 0.146,-0.176 0.24,-0.24c0.342,-0.242 0.81,-0.242 1.152,0c0.112,0.078 0.208,0.18 0.278,0.296c0.086,0.14 0.128,0.29 0.144,0.452c0.138,4.02 0.002,8.046 0.002,12.068c-0.006,0.162 -0.038,0.316 -0.112,0.46c-0.064,0.122 -0.15,0.23 -0.256,0.316c-0.09,0.072 -0.19,0.128 -0.298,0.166c-0.326,0.116 -0.696,0.052 -0.966,-0.166c-0.07,-0.058 -0.132,-0.124 -0.184,-0.2c-0.092,-0.13 -0.152,-0.282 -0.174,-0.44c-0.008,-0.06 -0.008,-0.076 -0.01,-0.136v-5h-4v5c-0.002,0.06 -0.002,0.076 -0.01,0.136c-0.022,0.158 -0.082,0.31 -0.174,0.44c-0.064,0.094 -0.146,0.176 -0.24,0.24c-0.342,0.242 -0.81,0.242 -1.152,0c-0.112,-0.078 -0.208,-0.18 -0.278,-0.296c-0.086,-0.14 -0.128,-0.29 -0.144,-0.452c-0.138,-4.042 -0.138,-8.094 0,-12.136z"/></g></g></svg>