<svg version="1.1" xmlns="http://www.w3.org/2000/svg" xmlns:xlink="http://www.w3.org/1999/xlink" width="8.05928" height="13.99878" viewBox="0,0,8.05928,13.99878"><g transform="translate(-315.97036,-173.00061)"><g data-paper-data="{&quot;isPaintingLayer&quot;:true}" fill="#000000" fill-rule="nonzero" stroke="none" stroke-width="2" stroke-linecap="butt" stroke-linejoin="miter" stroke-miterlimit="10" stroke-dasharray="" stroke-dashoffset="0" style="mix-blend-mode: normal"><path d="M323.15222,173.00861c0.136,0.02 0.266,0.06 0.386,0.13c0.318,0.188 0.51,0.546 0.49,0.916c-0.006,0.138 -0.046,0.268 -0.104,0.394l-2.776,5.552l2.776,5.552l0.028,0.062c0.058,0.152 0.088,0.306 0.074,0.468c-0.01,0.136 -0.05,0.27 -0.114,0.39c-0.054,0.102 -0.126,0.192 -0.21,0.268c-0.31,0.282 -0.776,0.34 -1.144,0.142c-0.142,-0.076 -0.264,-0.186 -0.354,-0.318c-0.034,-0.05 -0.04,-0.064 -0.068,-0.116l-2.106,-4.212l-2.106,4.212l-0.032,0.06c-0.088,0.136 -0.194,0.254 -0.332,0.34c-0.336,0.21 -0.778,0.198 -1.102,-0.028c-0.094,-0.066 -0.176,-0.148 -0.244,-0.24c-0.078,-0.112 -0.134,-0.24 -0.162,-0.376c-0.014,-0.06 -0.014,-0.074 -0.02,-0.136c-0.138,-4.02 -0.002,-8.046 -0.002,-12.068c0.002,-0.06 0.002,-0.076 0.01,-0.136c0.022,-0.158 0.082,-0.31 0.174,-0.44c0.052,-0.076 0.114,-0.142 0.184,-0.2c0.27,-0.218 0.64,-0.282 0.966,-0.166c0.108,0.038 0.208,0.094 0.298,0.166c0.106,0.086 0.192,0.194 0.256,0.316c0.074,0.144 0.106,0.298 0.112,0.46v7.764c1.368,-2.738 2.738,-5.474 4.106,-8.212l0.032,-0.06c0.05,-0.076 0.102,-0.148 0.168,-0.212c0.132,-0.128 0.298,-0.216 0.476,-0.256c0.068,-0.016 0.134,-0.02 0.204,-0.024c0.068,0.002 0.068,0.002 0.136,0.008z"/></g></g></svg>