<svg version="1.1" xmlns="http://www.w3.org/2000/svg" xmlns:xlink="http://www.w3.org/1999/xlink" width="8.0002" height="7.99811" viewBox="0,0,8.0002,7.99811"><g transform="translate(-315.9999,-176.00094)"><g data-paper-data="{&quot;isPaintingLayer&quot;:true}" fill="#000000" fill-rule="nonzero" stroke="none" stroke-width="1.58114" stroke-linecap="butt" stroke-linejoin="miter" stroke-miterlimit="10" stroke-dasharray="" stroke-dashoffset="0" style="mix-blend-mode: normal"><path d="M323.05179,176.00231c0.13,0.01 0.256,0.038 0.374,0.094c0.356,0.168 0.584,0.54 0.574,0.934c-0.004,0.13 -0.036,0.254 -0.086,0.374c-0.964,2.053 -1.98,4.083 -3.042,6.087c-0.074,0.125 -0.168,0.235 -0.286,0.321c-0.346,0.249 -0.826,0.249 -1.172,0c-0.118,-0.086 -0.212,-0.196 -0.286,-0.321c-1.062,-2.004 -2.078,-4.034 -3.042,-6.087c-0.064,-0.15 -0.094,-0.308 -0.084,-0.471c0.028,-0.393 0.292,-0.741 0.662,-0.874c0.09,-0.032 0.186,-0.052 0.284,-0.057c0.112,-0.006 0.226,0.008 0.334,0.039c0.124,0.037 0.24,0.097 0.34,0.178c0.116,0.091 0.204,0.205 0.272,0.335l2.106,4.211c0.71,-1.418 1.386,-2.853 2.128,-4.254c0.024,-0.041 0.024,-0.041 0.052,-0.082c0.048,-0.065 0.1,-0.126 0.16,-0.179c0.16,-0.141 0.358,-0.22 0.568,-0.245c0.048,-0.003 0.096,-0.004 0.144,-0.003z"/></g></g></svg>