<svg version="1.1" xmlns="http://www.w3.org/2000/svg" xmlns:xlink="http://www.w3.org/1999/xlink" width="8.00054" height="13.99801" viewBox="0,0,8.00054,13.99801"><g transform="translate(-315.99973,-173.001)"><g data-paper-data="{&quot;isPaintingLayer&quot;:true}" fill="#000000" fill-rule="nonzero" stroke="none" stroke-width="1.76777" stroke-linecap="butt" stroke-linejoin="miter" stroke-miterlimit="10" stroke-dasharray="" stroke-dashoffset="0" style="mix-blend-mode: normal"><path d="M323.05389,173.00243c0.138,0.012 0.2685,0.042 0.393,0.104c0.3525,0.176 0.573,0.554 0.552,0.948c-0.0075,0.138 -0.0465,0.268 -0.105,0.394l-2.8935,5.788v5.764l-0.003,0.068c-0.006,0.06 -0.006,0.076 -0.018,0.136c-0.033,0.156 -0.1035,0.304 -0.204,0.428c-0.264,0.324 -0.7155,0.45 -1.11,0.31c-0.108,-0.038 -0.2085,-0.094 -0.297,-0.166c-0.105,-0.086 -0.1935,-0.194 -0.2565,-0.316c-0.075,-0.144 -0.1065,-0.298 -0.1125,-0.46v-5.764l-2.8935,-5.788l-0.0285,-0.062c-0.0225,-0.058 -0.0285,-0.072 -0.0435,-0.13c-0.042,-0.154 -0.045,-0.318 -0.0105,-0.474c0.0915,-0.408 0.4395,-0.724 0.855,-0.774c0.1125,-0.014 0.228,-0.008 0.339,0.016c0.1335,0.03 0.261,0.088 0.3705,0.168c0.132,0.096 0.2295,0.218 0.306,0.36l2.106,4.212l2.106,-4.212l0.0315,-0.06c0.0375,-0.058 0.075,-0.112 0.1215,-0.164c0.123,-0.136 0.282,-0.236 0.4575,-0.286c0.066,-0.02 0.132,-0.03 0.201,-0.038c0.0675,-0.004 0.0675,-0.004 0.1365,-0.002z"/></g></g></svg>