<svg version="1.1" xmlns="http://www.w3.org/2000/svg" xmlns:xlink="http://www.w3.org/1999/xlink" width="8.0202" height="13.99864" viewBox="0,0,8.0202,13.99864"><g transform="translate(-315.9899,-173.00068)"><g data-paper-data="{&quot;isPaintingLayer&quot;:true}" fill="#000000" fill-rule="nonzero" stroke="none" stroke-width="2" stroke-linecap="butt" stroke-linejoin="miter" stroke-miterlimit="10" stroke-dasharray="" stroke-dashoffset="0" style="mix-blend-mode: normal"><path d="M320.102,173.00146c0.136,0.004 0.272,0.012 0.406,0.03c0.328,0.042 0.652,0.124 0.958,0.246c1.056,0.416 1.902,1.282 2.292,2.346c0.15,0.41 0.224,0.838 0.24,1.274c0.026,2.036 0.002,4.072 0.002,6.108c-0.002,0.168 -0.01,0.336 -0.032,0.502c-0.046,0.36 -0.142,0.714 -0.282,1.05c-0.276,0.65 -0.726,1.224 -1.292,1.646c-0.39,0.292 -0.832,0.512 -1.3,0.644c-0.42,0.12 -0.862,0.17 -1.298,0.146c-0.432,-0.02 -0.86,-0.114 -1.262,-0.272c-0.45,-0.176 -0.866,-0.436 -1.224,-0.762c-0.38,-0.344 -0.692,-0.762 -0.916,-1.226c-0.17,-0.354 -0.288,-0.736 -0.348,-1.126c-0.026,-0.168 -0.038,-0.336 -0.044,-0.506c-0.026,-2.036 -0.002,-4.072 -0.002,-6.108c0.006,-0.436 0.07,-0.864 0.21,-1.276c0.364,-1.074 1.188,-1.962 2.232,-2.404c0.304,-0.128 0.624,-0.218 0.95,-0.268c0.134,-0.02 0.268,-0.032 0.402,-0.04c0.104,-0.004 0.206,-0.006 0.308,-0.004zM319.948,174.99946c-0.234,0.01 -0.464,0.052 -0.682,0.138c-0.526,0.208 -0.95,0.642 -1.144,1.174c-0.076,0.206 -0.112,0.418 -0.122,0.636c-0.024,2.034 -0.024,4.07 0,6.104c0.01,0.266 0.066,0.528 0.176,0.77c0.24,0.532 0.714,0.942 1.276,1.102c0.212,0.06 0.432,0.084 0.652,0.074c0.216,-0.012 0.428,-0.058 0.63,-0.136c0.224,-0.09 0.432,-0.22 0.61,-0.382c0.19,-0.172 0.348,-0.382 0.46,-0.614c0.122,-0.256 0.184,-0.532 0.196,-0.814c0.026,-2.034 0.026,-4.07 0,-6.104c-0.01,-0.218 -0.046,-0.43 -0.122,-0.636c-0.188,-0.516 -0.594,-0.94 -1.1,-1.156c-0.198,-0.084 -0.408,-0.13 -0.624,-0.15c-0.068,-0.004 -0.136,-0.006 -0.206,-0.006z"/></g></g></svg>