<svg version="1.1" xmlns="http://www.w3.org/2000/svg" xmlns:xlink="http://www.w3.org/1999/xlink" width="8.00877" height="14.03123" viewBox="0,0,8.00877,14.03123"><g transform="translate(-315.99561,-172.98438)"><g data-paper-data="{&quot;isPaintingLayer&quot;:true}" fill="#000000" fill-rule="nonzero" stroke="none" stroke-width="2" stroke-linecap="butt" stroke-linejoin="miter" stroke-miterlimit="10" stroke-dasharray="" stroke-dashoffset="0" style="mix-blend-mode: normal"><path d="M323.07371,173.00397c0.162,0.016 0.312,0.058 0.452,0.144c0.096,0.058 0.184,0.134 0.256,0.222c0.248,0.306 0.294,0.742 0.112,1.092c-0.052,0.102 -0.122,0.194 -0.206,0.27c-0.116,0.11 -0.258,0.19 -0.412,0.232c-0.066,0.02 -0.134,0.028 -0.202,0.036c-1.04,0.036 -2.08,-0.01 -3.12,0.002c-0.218,0.01 -0.43,0.046 -0.636,0.122c-0.532,0.194 -0.966,0.618 -1.174,1.144c-0.086,0.218 -0.128,0.448 -0.138,0.682c-0.026,2.034 -0.026,4.07 0,6.104c0.01,0.234 0.052,0.464 0.138,0.682c0.208,0.526 0.642,0.95 1.174,1.144c0.206,0.076 0.418,0.114 0.636,0.122c1.018,0.012 2.034,0 3.052,0c0.162,0.006 0.316,0.038 0.46,0.112c0.122,0.062 0.23,0.15 0.316,0.256c0.264,0.326 0.296,0.794 0.078,1.152c-0.058,0.096 -0.134,0.184 -0.222,0.256c-0.124,0.1 -0.272,0.17 -0.428,0.204c-0.06,0.012 -0.076,0.012 -0.136,0.018c-1.024,0.034 -2.05,0.002 -3.074,0.002c-0.436,-0.006 -0.864,-0.07 -1.276,-0.21c-1.106,-0.374 -2.012,-1.238 -2.44,-2.324c-0.122,-0.306 -0.204,-0.63 -0.246,-0.958c-0.018,-0.134 -0.026,-0.27 -0.03,-0.406c-0.026,-2.036 -0.002,-4.072 -0.002,-6.108c0.006,-0.436 0.07,-0.864 0.21,-1.276c0.176,-0.52 0.46,-1.002 0.83,-1.408c0.41,-0.452 0.924,-0.808 1.494,-1.032c0.306,-0.122 0.63,-0.204 0.958,-0.246c0.134,-0.018 0.27,-0.026 0.406,-0.03c1.056,-0.014 2.114,-0.036 3.17,0z"/></g></g></svg>