<svg version="1.1" xmlns="http://www.w3.org/2000/svg" xmlns:xlink="http://www.w3.org/1999/xlink" width="699" height="442.32718" viewBox="0,0,699,442.32718"><g transform="translate(34.5,26.99997)"><g data-paper-data="{&quot;isPaintingLayer&quot;:true}" fill-rule="nonzero" stroke="none" stroke-linecap="butt" stroke-linejoin="miter" stroke-miterlimit="10" stroke-dasharray="" stroke-dashoffset="0" style="mix-blend-mode: normal"><path d="M-34.5,383.00004v-410h699v410z" fill="#ff4c4c" stroke-width="0"/><text transform="translate(222.41005,63.08359) scale(1.04733,1.04733)" font-size="40" xml:space="preserve" fill="#ffffff" fill-rule="nonzero" stroke="none" stroke-width="1" stroke-linecap="butt" stroke-linejoin="miter" stroke-miterlimit="10" stroke-dasharray="" stroke-dashoffset="0" font-family="Sans Serif" font-weight="normal" text-anchor="start" style="mix-blend-mode: normal"><tspan x="0" dy="0">Welcome!</tspan></text><path d="M381.43625,148.43013c0,-16.331 13.23889,-29.56989 29.56989,-29.56989c16.331,0 29.56989,13.23889 29.56989,29.56989c0,16.331 -13.23889,29.56989 -29.56989,29.56989c-16.331,0 -29.56989,-13.23889 -29.56989,-29.56989z" fill="#ff6666" stroke-width="0"/><text transform="translate(26.36015,102.69377) scale(0.5,0.5)" font-size="40" xml:space="preserve" fill="#ffffff" fill-rule="nonzero" stroke="none" stroke-width="1" stroke-linecap="butt" stroke-linejoin="miter" stroke-miterlimit="10" stroke-dasharray="" stroke-dashoffset="0" font-family="Sans Serif" font-weight="normal" text-anchor="start" style="mix-blend-mode: normal"><tspan x="0" dy="0">Looks like you are new to the game!</tspan><tspan x="0" dy="46.150000000000006px"> </tspan><tspan x="0" dy="46.150000000000006px">You will have to take care of a small pet from now on, if you</tspan><tspan x="0" dy="46.150000000000006px">don't take care of it, it will die. Time counts even when you are</tspan><tspan x="0" dy="46.150000000000006px">offline.</tspan><tspan x="0" dy="46.150000000000006px"> </tspan><tspan x="0" dy="46.150000000000006px">Please choose a name for your pet</tspan></text><path d="M18.45345,53.37541c0,-11.60959 9.41143,-21.02102 21.02102,-21.02102c11.60959,0 21.02102,9.41143 21.02102,21.02102c0,11.60959 -9.41143,21.02102 -21.02102,21.02102c-11.60959,0 -21.02102,-9.41143 -21.02102,-21.02102z" fill="#ff6666" stroke-width="0"/><path d="M249.68468,270.34238c0,-6.21942 5.04184,-11.26126 11.26126,-11.26126c6.21942,0 11.26126,5.04184 11.26126,11.26126c0,6.21942 -5.04184,11.26126 -11.26126,11.26126c-6.21942,0 -11.26126,-5.04184 -11.26126,-11.26126z" fill="#ff6666" stroke-width="0"/><path d="M529.66974,68.93704c0,-4.24182 3.43867,-7.68049 7.68049,-7.68049c4.24182,0 7.68049,3.43867 7.68049,7.68049c0,4.24182 -3.43867,7.68049 -7.68049,7.68049c-4.24182,0 -7.68049,-3.43867 -7.68049,-7.68049z" fill="#ff6666" stroke-width="0"/><path d="M529.66974,343.51463c0,-11.665 9.45635,-21.12135 21.12135,-21.12135c11.665,0 21.12135,9.45635 21.12135,21.12135c0,11.665 -9.45635,21.12135 -21.12135,21.12135c-11.665,0 -21.12135,-9.45635 -21.12135,-21.12135z" fill="#ff6666" stroke-width="0"/><path d="M537.35023,414.9432c0,0.21209 -0.34387,0.38402 -0.76805,0.38402c-0.42418,0 -0.76805,-0.17193 -0.76805,-0.38402c0,-0.21209 0.34387,-0.38402 0.76805,-0.38402c0.42418,0 0.76805,0.17193 0.76805,0.38402z" fill="#ff6666" stroke-width="0"/></g></g></svg>