<svg version="1.1" xmlns="http://www.w3.org/2000/svg" xmlns:xlink="http://www.w3.org/1999/xlink" width="8.0001" height="14.04906" viewBox="0,0,8.0001,14.04906"><g transform="translate(-315.99995,-172.97547)"><g data-paper-data="{&quot;isPaintingLayer&quot;:true}" fill="#000000" fill-rule="nonzero" stroke="none" stroke-width="1" stroke-linecap="butt" stroke-linejoin="miter" stroke-miterlimit="10" stroke-dasharray="" stroke-dashoffset="0" style="mix-blend-mode: normal"><path d="M323.06802,173.02722c0.136,0.014 0.266,0.045 0.389,0.109c0.327,0.167 0.539,0.511 0.543,0.878c0.001,0.138 -0.029,0.268 -0.077,0.397c-1.873,4.086 -4.018,8.041 -6.029,12.061c-0.029,0.054 -0.034,0.068 -0.069,0.118c-0.09,0.131 -0.212,0.241 -0.352,0.316c-0.08,0.043 -0.167,0.075 -0.255,0.095c-0.338,0.075 -0.699,-0.034 -0.939,-0.283c-0.079,-0.082 -0.143,-0.178 -0.19,-0.281c-0.057,-0.125 -0.087,-0.261 -0.089,-0.398c-0.002,-0.162 0.038,-0.314 0.106,-0.461l5.276,-10.553h-4.382l-0.068,-0.002c-0.069,-0.007 -0.135,-0.016 -0.202,-0.035c-0.153,-0.043 -0.296,-0.123 -0.413,-0.232c-0.083,-0.078 -0.152,-0.17 -0.205,-0.271c-0.052,-0.101 -0.087,-0.211 -0.103,-0.324c-0.053,-0.39 0.135,-0.786 0.471,-0.99c0.14,-0.085 0.291,-0.127 0.452,-0.144c2.044,-0.069 4.092,-0.069 6.136,0z"/></g></g></svg>