<svg version="1.1" xmlns="http://www.w3.org/2000/svg" xmlns:xlink="http://www.w3.org/1999/xlink" width="8.01626" height="13.99872" viewBox="0,0,8.01626,13.99872"><g transform="translate(-315.99187,-173.00064)"><g data-paper-data="{&quot;isPaintingLayer&quot;:true}" fill="#000000" fill-rule="nonzero" stroke="none" stroke-width="1" stroke-linecap="butt" stroke-linejoin="miter" stroke-miterlimit="10" stroke-dasharray="" stroke-dashoffset="0" style="mix-blend-mode: normal"><path d="M320.09498,173.00139c0.435,0.017 0.863,0.092 1.272,0.242c1.065,0.39 1.932,1.236 2.347,2.29c0.122,0.308 0.204,0.631 0.246,0.959c0.017,0.135 0.026,0.27 0.031,0.405c0.038,3.034 0.001,6.069 0.001,9.103c-0.006,0.162 -0.037,0.316 -0.112,0.46c-0.063,0.121 -0.151,0.229 -0.257,0.316c-0.088,0.072 -0.189,0.128 -0.296,0.166c-0.326,0.116 -0.698,0.052 -0.966,-0.166c-0.071,-0.058 -0.133,-0.125 -0.186,-0.199c-0.092,-0.131 -0.152,-0.283 -0.174,-0.441c-0.008,-0.06 -0.007,-0.075 -0.009,-0.136v-5c-0.701,0 -1.402,0.008 -2.103,-0.001c-0.102,-0.004 -0.101,-0.004 -0.204,-0.011c-0.167,-0.014 -0.333,-0.035 -0.498,-0.069c-0.321,-0.066 -0.634,-0.172 -0.93,-0.314c-1.022,-0.492 -1.803,-1.419 -2.113,-2.511c-0.12,-0.421 -0.169,-0.862 -0.147,-1.299c0.022,-0.432 0.114,-0.86 0.273,-1.262c0.177,-0.449 0.436,-0.865 0.761,-1.223c0.345,-0.38 0.764,-0.692 1.226,-0.915c0.356,-0.171 0.737,-0.289 1.127,-0.349c0.168,-0.026 0.336,-0.038 0.505,-0.045c0.103,-0.001 0.103,-0.001 0.206,0zM319.99198,175.00039c-0.268,0.003 -0.531,0.052 -0.778,0.157c-0.553,0.234 -0.982,0.717 -1.146,1.295c-0.06,0.211 -0.084,0.432 -0.073,0.652c0.011,0.231 0.063,0.461 0.154,0.674c0.094,0.222 0.229,0.427 0.395,0.602c0.178,0.186 0.391,0.338 0.625,0.444c0.262,0.118 0.543,0.172 0.829,0.176h1.994c0,-0.684 0.008,-1.368 -0.001,-2.052c-0.002,-0.052 -0.005,-0.102 -0.009,-0.154c-0.023,-0.197 -0.069,-0.389 -0.147,-0.572c-0.214,-0.507 -0.639,-0.912 -1.155,-1.101c-0.222,-0.081 -0.453,-0.118 -0.688,-0.121z"/></g></g></svg>