<svg version="1.1" xmlns="http://www.w3.org/2000/svg" xmlns:xlink="http://www.w3.org/1999/xlink" width="8.0101" height="14.00033" viewBox="0,0,8.0101,14.00033"><g transform="translate(-315.99495,-172.99984)"><g data-paper-data="{&quot;isPaintingLayer&quot;:true}" fill="#000000" fill-rule="nonzero" stroke="none" stroke-width="2" stroke-linecap="butt" stroke-linejoin="miter" stroke-miterlimit="10" stroke-dasharray="" stroke-dashoffset="0" style="mix-blend-mode: normal"><path d="M317.99695,183.1079c0.016,0.248 0.072,0.49 0.174,0.716c0.24,0.532 0.712,0.942 1.274,1.1c0.228,0.066 0.468,0.088 0.704,0.07c0.216,-0.016 0.426,-0.068 0.624,-0.15c0.222,-0.094 0.428,-0.23 0.602,-0.396c0.186,-0.178 0.338,-0.39 0.444,-0.626c0.118,-0.262 0.172,-0.542 0.176,-0.828v-1.994c-0.7,0 -1.402,0.008 -2.102,-0.002c-0.102,-0.004 -0.102,-0.004 -0.204,-0.01c-0.202,-0.018 -0.4,-0.046 -0.596,-0.09c-0.444,-0.102 -0.87,-0.282 -1.254,-0.528c-0.732,-0.47 -1.302,-1.178 -1.602,-1.994c-0.136,-0.376 -0.216,-0.772 -0.236,-1.172c-0.02,-0.37 0.012,-0.744 0.096,-1.106c0.088,-0.382 0.234,-0.75 0.428,-1.09c0.24,-0.416 0.554,-0.788 0.926,-1.094c0.372,-0.308 0.802,-0.548 1.262,-0.704c0.508,-0.172 1.052,-0.24 1.588,-0.198c0.56,0.042 1.108,0.204 1.602,0.472c0.534,0.29 1,0.704 1.354,1.2c0.32,0.45 0.546,0.968 0.656,1.51c0.048,0.232 0.072,0.466 0.08,0.704c0.026,2.036 0.002,4.072 0.002,6.108c-0.002,0.168 -0.01,0.336 -0.032,0.502c-0.054,0.426 -0.176,0.84 -0.362,1.226c-0.378,0.784 -1.012,1.432 -1.784,1.828c-0.35,0.18 -0.728,0.306 -1.116,0.376c-0.434,0.078 -0.882,0.082 -1.318,0.016c-0.39,-0.06 -0.77,-0.178 -1.124,-0.348c-0.434,-0.21 -0.828,-0.496 -1.16,-0.844c-0.334,-0.35 -0.602,-0.758 -0.79,-1.202c-0.208,-0.492 -0.314,-1.026 -0.314,-1.56l0.002,-0.068c0.006,-0.06 0.006,-0.076 0.018,-0.136c0.034,-0.156 0.104,-0.304 0.204,-0.428c0.072,-0.088 0.16,-0.164 0.256,-0.222c0.358,-0.218 0.826,-0.186 1.152,0.078c0.106,0.086 0.194,0.194 0.256,0.316c0.074,0.144 0.106,0.298 0.112,0.46v-0.002c0,0.054 0,0.054 0.002,0.11zM319.99495,174.9999c-0.268,0.004 -0.53,0.052 -0.778,0.156c-0.538,0.228 -0.958,0.692 -1.132,1.248c-0.07,0.226 -0.1,0.464 -0.088,0.7c0.012,0.232 0.064,0.46 0.154,0.674c0.094,0.222 0.23,0.428 0.396,0.602c0.178,0.186 0.39,0.338 0.626,0.444c0.262,0.118 0.542,0.172 0.828,0.176h1.994c0,-0.684 0.008,-1.368 0,-2.052c-0.002,-0.052 -0.006,-0.102 -0.01,-0.154c-0.022,-0.196 -0.07,-0.39 -0.146,-0.572c-0.202,-0.476 -0.59,-0.864 -1.066,-1.066c-0.198,-0.084 -0.408,-0.13 -0.624,-0.15c-0.05,-0.004 -0.102,-0.006 -0.154,-0.006z"/></g></g></svg>