<svg version="1.1" xmlns="http://www.w3.org/2000/svg" xmlns:xlink="http://www.w3.org/1999/xlink" width="8.00007" height="7.9999" viewBox="0,0,8.00007,7.9999"><g transform="translate(-315.99996,-176.00005)"><g data-paper-data="{&quot;isPaintingLayer&quot;:true}" fill="#000000" fill-rule="nonzero" stroke="none" stroke-width="1.27476" stroke-linecap="butt" stroke-linejoin="miter" stroke-miterlimit="10" stroke-dasharray="" stroke-dashoffset="0" style="mix-blend-mode: normal"><path d="M317.0598,176.00202c0.1785,0.015 0.348,0.068 0.498,0.168c0.054,0.036 0.102,0.078 0.1485,0.123l2.2935,2.293c0.7755,-0.776 1.533,-1.57 2.328,-2.326c0.036,-0.032 0.036,-0.032 0.075,-0.062c0.1185,-0.084 0.249,-0.147 0.393,-0.177c0.126,-0.026 0.258,-0.028 0.384,-0.005c0.4215,0.078 0.7545,0.427 0.8115,0.851c0.015,0.112 0.0105,0.227 -0.012,0.337c-0.0405,0.193 -0.138,0.361 -0.273,0.503l-2.292,2.292c0.7755,0.776 1.5705,1.535 2.3265,2.329c0.0315,0.037 0.0315,0.036 0.0615,0.075c0.084,0.119 0.147,0.249 0.177,0.393c0.0255,0.127 0.027,0.258 0.0045,0.385c-0.078,0.421 -0.4275,0.753 -0.852,0.81c-0.111,0.015 -0.225,0.011 -0.336,-0.012c-0.1935,-0.04 -0.3615,-0.137 -0.5025,-0.272l-2.2935,-2.293c-0.7755,0.776 -1.533,1.57 -2.328,2.326c-0.036,0.032 -0.036,0.032 -0.075,0.062c-0.159,0.113 -0.3405,0.184 -0.537,0.196c-0.1125,0.007 -0.2265,-0.005 -0.3345,-0.036c-0.4125,-0.118 -0.7095,-0.498 -0.7245,-0.926c-0.0045,-0.129 0.015,-0.258 0.06,-0.379c0.051,-0.138 0.1305,-0.258 0.2325,-0.364l2.292,-2.293c-0.7755,-0.776 -1.569,-1.534 -2.3265,-2.328c-0.0315,-0.036 -0.0315,-0.036 -0.0615,-0.074c-0.084,-0.12 -0.147,-0.25 -0.177,-0.394c-0.087,-0.419 0.111,-0.859 0.483,-1.072c0.1275,-0.073 0.267,-0.113 0.4125,-0.128c0.048,-0.003 0.096,-0.004 0.144,-0.002z"/></g></g></svg>