<svg version="1.1" xmlns="http://www.w3.org/2000/svg" xmlns:xlink="http://www.w3.org/1999/xlink" width="90" height="90" viewBox="0,0,90,90"><g transform="translate(-275,-135)"><g data-paper-data="{&quot;isPaintingLayer&quot;:true}" fill-rule="nonzero" stroke-linejoin="miter" stroke-miterlimit="10" stroke-dasharray="" stroke-dashoffset="0" style="mix-blend-mode: normal"><path d="M275,180c0,-24.85281 20.14719,-45 45,-45c24.85281,0 45,20.14719 45,45c0,24.85281 -20.14719,45 -45,45c-24.85281,0 -45,-20.14719 -45,-45z" fill="#ffb666" stroke="none" stroke-width="0" stroke-linecap="butt"/><path d="M283.34024,170.64201c0,-2.66746 2.1624,-4.82987 4.82987,-4.82987c2.66746,0 4.82988,2.16241 4.82988,4.82987c0,2.66746 -2.16241,4.82987 -4.82988,4.82987c-2.66746,0 -4.82987,-2.16241 -4.82987,-4.82987z" fill="#000000" stroke="none" stroke-width="0" stroke-linecap="butt"/><path d="M348.173,173.62356c0,-2.66746 2.1624,-4.82988 4.82987,-4.82988c2.66746,0 4.82988,2.16241 4.82988,4.82988c0,2.66746 -2.16241,4.82987 -4.82988,4.82987c-2.66746,0 -4.82987,-2.16241 -4.82987,-4.82987z" fill="#000000" stroke="none" stroke-width="0" stroke-linecap="butt"/><path d="M321.05253,186.32933c0,0 1.23585,-0.46024 7.41564,2.67362c1.2247,0.62106 3.42433,1.73016 3.56197,4.01274c0.04858,0.80562 -5.04627,1.05138 -5.01201,2.07613c0.02389,0.71461 4.78726,1.32732 4.79741,1.62169c0.07662,2.22197 -1.75281,3.46211 -4.00224,4.14072c-2.24942,0.6786 -7.20175,0.31227 -7.20175,0.31227" fill="none" stroke="#000000" stroke-width="4" stroke-linecap="round"/></g></g></svg>