<svg version="1.1" xmlns="http://www.w3.org/2000/svg" xmlns:xlink="http://www.w3.org/1999/xlink" width="7.99883" height="8.01784" viewBox="0,0,7.99883,8.01784"><g transform="translate(-316.00058,-175.99108)"><g data-paper-data="{&quot;isPaintingLayer&quot;:true}" fill="#000000" fill-rule="nonzero" stroke="none" stroke-width="1.58114" stroke-linecap="butt" stroke-linejoin="miter" stroke-miterlimit="10" stroke-dasharray="" stroke-dashoffset="0" style="mix-blend-mode: normal"><path d="M319.89342,183.99433c-0.17,-0.007 -0.338,-0.019 -0.506,-0.045c-0.422,-0.064 -0.832,-0.197 -1.212,-0.392c-0.37,-0.19 -0.712,-0.438 -1.006,-0.732c-0.318,-0.318 -0.58,-0.689 -0.776,-1.093c-0.462,-0.958 -0.518,-2.085 -0.16,-3.086c0.166,-0.461 0.416,-0.891 0.736,-1.262c0.342,-0.398 0.764,-0.727 1.234,-0.963c0.378,-0.19 0.786,-0.32 1.206,-0.382c0.162,-0.025 0.326,-0.037 0.49,-0.043c0.566,-0.007 1.132,-0.007 1.698,0c0.35,0.013 0.692,0.09 1.006,0.242c0.268,0.129 0.51,0.306 0.716,0.521c0.246,0.259 0.436,0.571 0.55,0.91c0.086,0.253 0.128,0.517 0.13,0.784c0,0.11 -0.002,0.219 -0.012,0.329c-0.026,0.243 -0.086,0.483 -0.182,0.708c-0.124,0.292 -0.304,0.559 -0.528,0.783c-0.21,0.21 -0.458,0.382 -0.728,0.504c-0.318,0.144 -0.66,0.214 -1.008,0.218h-3.274c0.262,0.445 0.684,0.782 1.184,0.924c0.162,0.046 0.328,0.069 0.496,0.075c1.034,0.013 2.068,-0.023 3.1,0.002c0.146,0.011 0.286,0.045 0.416,0.114c0.114,0.059 0.218,0.142 0.3,0.24c0.074,0.086 0.132,0.185 0.172,0.29c0.132,0.352 0.052,0.76 -0.204,1.036c-0.066,0.071 -0.142,0.132 -0.226,0.181c-0.14,0.083 -0.296,0.125 -0.458,0.137c-1.052,0.025 -2.104,0.013 -3.154,0zM320.00542,177.99533c-0.166,0.002 -0.332,0.02 -0.494,0.06c-0.364,0.092 -0.702,0.288 -0.96,0.561c-0.104,0.108 -0.19,0.226 -0.268,0.352l-0.016,0.027c1.106,0 2.216,0.095 3.316,-0.003c0.034,-0.003 0.068,-0.011 0.1,-0.021c0.118,-0.042 0.216,-0.127 0.27,-0.24c0.032,-0.064 0.046,-0.135 0.046,-0.206c0,-0.058 0.002,-0.115 -0.012,-0.172c-0.03,-0.132 -0.122,-0.246 -0.242,-0.308c-0.054,-0.028 -0.112,-0.043 -0.174,-0.049c-0.52,-0.033 -1.044,-0.001 -1.566,-0.001z"/></g></g></svg>