<svg version="1.1" xmlns="http://www.w3.org/2000/svg" xmlns:xlink="http://www.w3.org/1999/xlink" width="5.0074" height="7.99913" viewBox="0,0,5.0074,7.99913"><g transform="translate(-317.4963,-176.00044)"><g data-paper-data="{&quot;isPaintingLayer&quot;:true}" fill="#000000" fill-rule="nonzero" stroke="none" stroke-width="2" stroke-linecap="butt" stroke-linejoin="miter" stroke-miterlimit="10" stroke-dasharray="" stroke-dashoffset="0" style="mix-blend-mode: normal"><path d="M321.5544,176.00122c0.196,0.014 0.38,0.074 0.54,0.188c0.092,0.068 0.17,0.15 0.234,0.242c0.244,0.352 0.232,0.834 -0.028,1.176c-0.146,0.192 -0.364,0.326 -0.602,0.374c-0.12,0.022 -0.23,0.016 -0.35,0.024c-0.052,0.004 -0.102,0.01 -0.152,0.018c-0.194,0.032 -0.382,0.086 -0.558,0.172c-0.466,0.224 -0.834,0.63 -1.012,1.114c-0.074,0.204 -0.112,0.418 -0.12,0.634c-0.012,1.034 0.024,2.07 -0.002,3.104c-0.01,0.146 -0.044,0.286 -0.112,0.416c-0.06,0.114 -0.142,0.218 -0.242,0.3c-0.086,0.074 -0.184,0.132 -0.29,0.172c-0.09,0.034 -0.186,0.054 -0.282,0.062c-0.376,0.026 -0.744,-0.166 -0.934,-0.492c-0.082,-0.14 -0.126,-0.296 -0.136,-0.458c-0.026,-1.018 -0.002,-2.038 -0.002,-3.058c0.006,-0.434 0.07,-0.864 0.21,-1.276c0.364,-1.072 1.188,-1.958 2.23,-2.4c0.304,-0.128 0.624,-0.218 0.948,-0.268c0.134,-0.02 0.268,-0.032 0.404,-0.04c0.084,-0.004 0.17,-0.006 0.256,-0.004z"/></g></g></svg>