<svg version="1.1" xmlns="http://www.w3.org/2000/svg" xmlns:xlink="http://www.w3.org/1999/xlink" width="8.04864" height="13.99883" viewBox="0,0,8.04864,13.99883"><g transform="translate(-315.97568,-173.00058)"><g data-paper-data="{&quot;isPaintingLayer&quot;:true}" fill="#000000" fill-rule="nonzero" stroke="none" stroke-width="2" stroke-linecap="butt" stroke-linejoin="miter" stroke-miterlimit="10" stroke-dasharray="" stroke-dashoffset="0" style="mix-blend-mode: normal"><path d="M317.98246,183.10715c0.016,0.248 0.072,0.49 0.174,0.716c0.24,0.532 0.712,0.942 1.274,1.1c0.228,0.066 0.468,0.088 0.704,0.07c0.216,-0.016 0.426,-0.068 0.624,-0.15c0.222,-0.094 0.428,-0.23 0.602,-0.396c0.186,-0.178 0.338,-0.39 0.444,-0.626c0.118,-0.262 0.172,-0.542 0.176,-0.828v-2.53c-0.058,0.036 -0.118,0.066 -0.178,0.098c-0.088,0.044 -0.088,0.044 -0.176,0.084c-0.15,0.066 -0.3,0.126 -0.456,0.174c-0.352,0.11 -0.72,0.17 -1.088,0.178c-0.404,0.01 -0.808,-0.04 -1.196,-0.15c-0.53,-0.15 -1.026,-0.412 -1.45,-0.762c-0.472,-0.388 -0.85,-0.884 -1.102,-1.44c-0.15,-0.33 -0.254,-0.68 -0.308,-1.038c-0.026,-0.168 -0.038,-0.336 -0.044,-0.506c-0.014,-1.034 -0.002,-2.068 -0.002,-3.102c0.006,-0.162 0.038,-0.316 0.112,-0.46c0.064,-0.122 0.15,-0.23 0.256,-0.316c0.09,-0.072 0.19,-0.128 0.298,-0.166c0.394,-0.14 0.846,-0.014 1.11,0.31c0.1,0.124 0.17,0.272 0.204,0.428c0.012,0.06 0.012,0.076 0.018,0.136c0.036,1.04 -0.01,2.08 0.002,3.12c0.012,0.284 0.074,0.558 0.196,0.814c0.112,0.232 0.27,0.442 0.46,0.614c0.178,0.162 0.386,0.292 0.61,0.382c0.202,0.078 0.414,0.124 0.63,0.136c0.22,0.01 0.44,-0.014 0.652,-0.074c0.562,-0.16 1.036,-0.57 1.276,-1.102c0.11,-0.242 0.166,-0.504 0.176,-0.77c0.012,-1.018 0,-2.034 0,-3.052c0.006,-0.162 0.038,-0.316 0.112,-0.46c0.064,-0.122 0.15,-0.23 0.256,-0.316c0.09,-0.072 0.19,-0.128 0.298,-0.166c0.394,-0.14 0.846,-0.014 1.11,0.31c0.1,0.124 0.17,0.272 0.204,0.428c0.012,0.06 0.012,0.076 0.018,0.136c0.102,3.022 0.002,6.05 0.002,9.074c-0.002,0.168 -0.01,0.336 -0.032,0.502c-0.05,0.392 -0.158,0.778 -0.322,1.138c-0.372,0.822 -1.022,1.504 -1.824,1.916c-0.35,0.18 -0.728,0.306 -1.116,0.376c-0.434,0.078 -0.882,0.082 -1.318,0.016c-0.39,-0.06 -0.77,-0.178 -1.126,-0.348c-0.432,-0.21 -0.826,-0.496 -1.158,-0.844c-0.334,-0.35 -0.602,-0.758 -0.79,-1.202c-0.208,-0.492 -0.314,-1.026 -0.314,-1.56l0.002,-0.068c0.006,-0.06 0.006,-0.076 0.018,-0.136c0.034,-0.156 0.104,-0.304 0.204,-0.428c0.072,-0.088 0.16,-0.164 0.256,-0.222c0.358,-0.218 0.826,-0.186 1.152,0.078c0.106,0.086 0.194,0.194 0.256,0.316c0.074,0.144 0.106,0.298 0.112,0.46v-0.002c0,0.054 0,0.054 0.002,0.11z"/></g></g></svg>