<svg version="1.1" xmlns="http://www.w3.org/2000/svg" xmlns:xlink="http://www.w3.org/1999/xlink" width="8.00004" height="8.04166" viewBox="0,0,8.00004,8.04166"><g transform="translate(-315.99998,-175.97917)"><g data-paper-data="{&quot;isPaintingLayer&quot;:true}" fill="#000000" fill-rule="nonzero" stroke="none" stroke-width="1.58114" stroke-linecap="butt" stroke-linejoin="miter" stroke-miterlimit="10" stroke-dasharray="" stroke-dashoffset="0" style="mix-blend-mode: normal"><path d="M323.04768,176.001c0.146,0.011 0.286,0.045 0.416,0.114c0.114,0.059 0.218,0.142 0.3,0.24c0.074,0.086 0.132,0.185 0.172,0.29c0.034,0.091 0.054,0.186 0.062,0.283c0.026,0.375 -0.166,0.743 -0.492,0.934c-0.14,0.083 -0.296,0.125 -0.458,0.137c-1.532,0.037 -3.074,-0.132 -4.6,0.004c-0.058,0.006 -0.112,0.021 -0.164,0.046c-0.18,0.087 -0.294,0.277 -0.284,0.477c0.004,0.054 0.014,0.107 0.034,0.157c0.022,0.056 0.056,0.108 0.096,0.153c0.044,0.048 0.096,0.087 0.154,0.115c0.064,0.031 0.132,0.046 0.202,0.049c1.026,0.013 2.052,-0.012 3.078,0.001c0.334,0.012 0.66,0.082 0.966,0.22c0.684,0.31 1.204,0.927 1.392,1.655c0.062,0.245 0.088,0.499 0.074,0.752c-0.012,0.27 -0.07,0.537 -0.17,0.789c-0.11,0.281 -0.272,0.541 -0.476,0.764c-0.216,0.238 -0.476,0.433 -0.766,0.572c-0.32,0.154 -0.666,0.233 -1.02,0.246c-1.538,0.02 -3.076,0.037 -4.612,0c-0.162,-0.012 -0.318,-0.054 -0.458,-0.137c-0.084,-0.049 -0.16,-0.11 -0.226,-0.181c-0.256,-0.276 -0.336,-0.684 -0.204,-1.036c0.04,-0.105 0.098,-0.204 0.172,-0.29c0.082,-0.098 0.186,-0.181 0.3,-0.24c0.13,-0.069 0.27,-0.103 0.416,-0.114c1.532,-0.037 3.074,0.132 4.6,-0.004c0.058,-0.006 0.112,-0.021 0.164,-0.046c0.18,-0.087 0.294,-0.278 0.284,-0.478c-0.004,-0.053 -0.014,-0.106 -0.034,-0.156c-0.022,-0.056 -0.056,-0.108 -0.096,-0.153c-0.044,-0.048 -0.096,-0.087 -0.154,-0.115c-0.064,-0.031 -0.132,-0.046 -0.202,-0.049c-1.026,-0.013 -2.052,0.012 -3.078,-0.001c-0.354,-0.013 -0.7,-0.092 -1.02,-0.246c-0.29,-0.139 -0.55,-0.334 -0.766,-0.572c-0.204,-0.223 -0.366,-0.483 -0.476,-0.764c-0.1,-0.252 -0.158,-0.519 -0.17,-0.789c-0.014,-0.253 0.012,-0.507 0.074,-0.752c0.188,-0.728 0.708,-1.345 1.392,-1.655c0.306,-0.138 0.632,-0.208 0.966,-0.22c1.538,-0.02 3.076,-0.037 4.612,0z"/></g></g></svg>