<svg version="1.1" xmlns="http://www.w3.org/2000/svg" xmlns:xlink="http://www.w3.org/1999/xlink" width="8.06017" height="13.99936" viewBox="0,0,8.06017,13.99936"><g transform="translate(-315.96992,-173.00032)"><g data-paper-data="{&quot;isPaintingLayer&quot;:true}" fill="#000000" fill-rule="nonzero" stroke="none" stroke-width="2" stroke-linecap="butt" stroke-linejoin="miter" stroke-miterlimit="10" stroke-dasharray="" stroke-dashoffset="0" style="mix-blend-mode: normal"><path d="M323.05423,173.00182c0.092,0.01 0.18,0.024 0.266,0.056c0.26,0.092 0.474,0.292 0.584,0.544c0.046,0.106 0.068,0.216 0.08,0.33c0.102,3.022 0.002,6.05 0.002,9.074c-0.002,0.168 -0.01,0.336 -0.032,0.502c-0.046,0.36 -0.142,0.714 -0.282,1.05c-0.276,0.65 -0.726,1.224 -1.292,1.646c-0.39,0.292 -0.832,0.512 -1.3,0.644c-0.42,0.12 -0.862,0.17 -1.298,0.146c-0.432,-0.02 -0.86,-0.114 -1.262,-0.272c-0.45,-0.176 -0.866,-0.436 -1.224,-0.762c-0.38,-0.344 -0.692,-0.762 -0.916,-1.226c-0.17,-0.354 -0.288,-0.736 -0.348,-1.126c-0.026,-0.168 -0.038,-0.336 -0.044,-0.506c-0.04,-3.034 -0.002,-6.068 -0.002,-9.102c0.006,-0.162 0.038,-0.316 0.112,-0.46c0.062,-0.122 0.15,-0.23 0.256,-0.316c0.09,-0.072 0.19,-0.128 0.298,-0.166c0.394,-0.14 0.846,-0.014 1.11,0.31c0.1,0.124 0.17,0.272 0.204,0.428c0.012,0.06 0.012,0.076 0.018,0.136c0.104,3.038 -0.036,6.08 0.002,9.12c0.012,0.282 0.074,0.558 0.196,0.814c0.112,0.232 0.27,0.442 0.46,0.614c0.178,0.162 0.386,0.292 0.61,0.382c0.202,0.078 0.414,0.124 0.63,0.136c0.22,0.01 0.44,-0.014 0.652,-0.074c0.562,-0.16 1.036,-0.57 1.276,-1.102c0.11,-0.242 0.166,-0.504 0.176,-0.77c0.038,-3.016 0,-6.034 0,-9.052c0.004,-0.116 0.018,-0.226 0.058,-0.334c0.1,-0.282 0.326,-0.508 0.608,-0.608c0.086,-0.032 0.174,-0.046 0.266,-0.056c0.068,-0.002 0.068,-0.002 0.136,0z"/></g></g></svg>