<svg version="1.1" xmlns="http://www.w3.org/2000/svg" xmlns:xlink="http://www.w3.org/1999/xlink" width="8.00054" height="13.99884" viewBox="0,0,8.00054,13.99884"><g transform="translate(-315.99973,-173.00058)"><g data-paper-data="{&quot;isPaintingLayer&quot;:true}" fill="#000000" fill-rule="nonzero" stroke="none" stroke-width="1.76777" stroke-linecap="butt" stroke-linejoin="miter" stroke-miterlimit="10" stroke-dasharray="" stroke-dashoffset="0" style="mix-blend-mode: normal"><path d="M323.05389,173.00202c0.138,0.012 0.2685,0.042 0.393,0.104c0.3525,0.176 0.573,0.554 0.552,0.948c-0.0075,0.138 -0.0465,0.268 -0.105,0.394l-2.775,5.55l2.775,5.556l0.0285,0.062c0.057,0.15 0.087,0.304 0.0735,0.466c-0.0105,0.138 -0.051,0.27 -0.1155,0.392c-0.054,0.1 -0.1245,0.19 -0.2085,0.266c-0.3105,0.282 -0.7755,0.34 -1.1445,0.142c-0.141,-0.076 -0.2625,-0.186 -0.3525,-0.318c-0.0345,-0.05 -0.0405,-0.064 -0.069,-0.116l-2.106,-4.212l-2.106,4.212l-0.0315,0.06c-0.087,0.136 -0.1935,0.252 -0.33,0.338c-0.117,0.074 -0.2475,0.122 -0.3825,0.142c-0.414,0.064 -0.834,-0.146 -1.0305,-0.516c-0.054,-0.1 -0.0915,-0.208 -0.108,-0.322c-0.024,-0.158 -0.009,-0.32 0.042,-0.472c0.0195,-0.056 0.027,-0.07 0.0525,-0.126l2.7765,-5.552l-2.7765,-5.552l-0.0285,-0.062c-0.0225,-0.058 -0.0285,-0.072 -0.0435,-0.13c-0.042,-0.154 -0.045,-0.318 -0.0105,-0.474c0.0915,-0.408 0.4395,-0.724 0.855,-0.774c0.1125,-0.014 0.228,-0.008 0.339,0.016c0.1335,0.03 0.261,0.088 0.3705,0.168c0.132,0.096 0.2295,0.218 0.306,0.36l2.106,4.212l2.106,-4.212l0.0315,-0.06c0.0375,-0.058 0.075,-0.112 0.1215,-0.164c0.123,-0.136 0.282,-0.236 0.4575,-0.286c0.066,-0.02 0.132,-0.03 0.201,-0.038c0.0675,-0.004 0.0675,-0.004 0.1365,-0.002z"/></g></g></svg>