<svg version="1.1" xmlns="http://www.w3.org/2000/svg" xmlns:xlink="http://www.w3.org/1999/xlink" width="8.001" height="7.99961" viewBox="0,0,8.001,7.99961"><g transform="translate(-315.9995,-176.00019)"><g data-paper-data="{&quot;isPaintingLayer&quot;:true}" fill="#000000" fill-rule="nonzero" stroke="none" stroke-width="2" stroke-linecap="butt" stroke-linejoin="miter" stroke-miterlimit="10" stroke-dasharray="" stroke-dashoffset="0" style="mix-blend-mode: normal"><path d="M320.102,176.00244c0.17,0.006 0.338,0.018 0.506,0.044c0.422,0.064 0.834,0.198 1.214,0.392c0.802,0.412 1.452,1.094 1.824,1.916c0.15,0.33 0.254,0.68 0.308,1.038c0.062,0.402 0.062,0.814 0,1.216c-0.064,0.422 -0.198,0.834 -0.392,1.214c-0.22,0.428 -0.516,0.814 -0.872,1.138c-0.358,0.326 -0.774,0.584 -1.224,0.762c-0.498,0.196 -1.034,0.29 -1.568,0.276c-0.564,-0.014 -1.124,-0.148 -1.632,-0.394c-0.842,-0.404 -1.526,-1.106 -1.912,-1.958c-0.15,-0.33 -0.254,-0.68 -0.308,-1.038c-0.062,-0.402 -0.062,-0.814 0,-1.216c0.064,-0.422 0.198,-0.834 0.392,-1.214c0.22,-0.428 0.516,-0.814 0.872,-1.138c0.358,-0.326 0.774,-0.584 1.224,-0.762c0.462,-0.182 0.968,-0.284 1.466,-0.278c0.034,0 0.068,0 0.102,0.002zM319.948,178.00044c-0.3,0.012 -0.59,0.082 -0.858,0.218c-0.534,0.274 -0.928,0.788 -1.05,1.378c-0.046,0.234 -0.052,0.474 -0.016,0.71c0.028,0.194 0.088,0.382 0.172,0.56c0.106,0.218 0.25,0.414 0.424,0.582c0.176,0.166 0.38,0.3 0.602,0.396c0.246,0.104 0.512,0.156 0.778,0.156c0.266,0 0.532,-0.052 0.778,-0.156c0.222,-0.096 0.426,-0.23 0.602,-0.396c0.174,-0.168 0.318,-0.364 0.424,-0.582c0.084,-0.178 0.144,-0.366 0.172,-0.56c0.036,-0.236 0.03,-0.476 -0.016,-0.71c-0.118,-0.572 -0.494,-1.076 -1.008,-1.354c-0.262,-0.144 -0.55,-0.22 -0.848,-0.24c-0.052,-0.002 -0.104,-0.002 -0.156,-0.002z"/></g></g></svg>