<svg version="1.1" xmlns="http://www.w3.org/2000/svg" xmlns:xlink="http://www.w3.org/1999/xlink" width="8.0178" height="8.00888" viewBox="0,0,8.0178,8.00888"><g transform="translate(-315.9911,-175.99556)"><g data-paper-data="{&quot;isPaintingLayer&quot;:true}" fill="#000000" fill-rule="nonzero" stroke="none" stroke-width="2" stroke-linecap="butt" stroke-linejoin="miter" stroke-miterlimit="10" stroke-dasharray="" stroke-dashoffset="0" style="mix-blend-mode: normal"><path d="M320.09314,175.99634c0.17,0.006 0.338,0.018 0.506,0.044c0.422,0.064 0.834,0.198 1.214,0.392c0.772,0.396 1.406,1.044 1.784,1.828c0.17,0.354 0.288,0.736 0.348,1.126c0.03,0.198 0.048,0.4 0.046,0.602c0.024,1.018 0.024,2.036 -0.002,3.054c-0.008,0.112 -0.028,0.22 -0.07,0.324c-0.106,0.266 -0.328,0.478 -0.6,0.574c-0.092,0.03 -0.184,0.046 -0.28,0.052c-1.018,0.026 -2.036,0.002 -3.054,0.002c-0.168,-0.002 -0.336,-0.01 -0.502,-0.032c-0.392,-0.05 -0.778,-0.158 -1.138,-0.322c-0.468,-0.212 -0.894,-0.514 -1.25,-0.886c-0.332,-0.35 -0.602,-0.758 -0.79,-1.202c-0.168,-0.398 -0.27,-0.822 -0.302,-1.252c-0.034,-0.436 0.004,-0.88 0.114,-1.304c0.122,-0.472 0.33,-0.922 0.612,-1.318c0.392,-0.55 0.92,-0.996 1.528,-1.29c0.324,-0.156 0.672,-0.268 1.028,-0.332c0.166,-0.03 0.332,-0.046 0.502,-0.056c0.102,-0.004 0.204,-0.006 0.306,-0.004zM319.93914,177.99434c-0.266,0.01 -0.528,0.066 -0.77,0.176c-0.532,0.24 -0.942,0.714 -1.102,1.276c-0.064,0.228 -0.088,0.466 -0.07,0.702c0.016,0.216 0.068,0.426 0.15,0.624c0.094,0.222 0.23,0.428 0.396,0.602c0.178,0.186 0.39,0.338 0.626,0.444c0.262,0.118 0.542,0.172 0.828,0.176h1.994c0,-0.684 0.008,-1.368 0,-2.052c-0.002,-0.052 -0.006,-0.102 -0.01,-0.154c-0.024,-0.196 -0.07,-0.388 -0.146,-0.572c-0.216,-0.506 -0.64,-0.912 -1.156,-1.1c-0.206,-0.076 -0.418,-0.112 -0.636,-0.122c-0.052,0 -0.052,0 -0.104,0z"/></g></g></svg>