<svg version="1.1" xmlns="http://www.w3.org/2000/svg" xmlns:xlink="http://www.w3.org/1999/xlink" width="8.05842" height="14.02825" viewBox="0,0,8.05842,14.02825"><g transform="translate(-315.97079,-172.98588)"><g data-paper-data="{&quot;isPaintingLayer&quot;:true}" fill="#000000" fill-rule="nonzero" stroke="none" stroke-width="2" stroke-linecap="butt" stroke-linejoin="miter" stroke-miterlimit="10" stroke-dasharray="" stroke-dashoffset="0" style="mix-blend-mode: normal"><path d="M317.09864,172.98738c0.092,0.01 0.18,0.024 0.266,0.056c0.282,0.1 0.508,0.326 0.608,0.608c0.04,0.108 0.054,0.218 0.058,0.334v11h5l0.068,0.002c0.068,0.008 0.136,0.016 0.202,0.036c0.154,0.042 0.296,0.122 0.412,0.232c0.288,0.268 0.392,0.694 0.26,1.064c-0.038,0.108 -0.094,0.208 -0.166,0.298c-0.072,0.088 -0.16,0.164 -0.256,0.222c-0.14,0.086 -0.29,0.128 -0.452,0.144c-2.022,0.068 -4.046,0.002 -6.068,0.002c-0.092,-0.004 -0.18,-0.012 -0.27,-0.038c-0.288,-0.08 -0.528,-0.29 -0.648,-0.564c-0.046,-0.106 -0.068,-0.216 -0.08,-0.33c-0.138,-4.02 -0.002,-8.046 -0.002,-12.068c0.004,-0.116 0.018,-0.226 0.058,-0.334c0.1,-0.282 0.326,-0.508 0.608,-0.608c0.086,-0.032 0.174,-0.046 0.266,-0.056c0.068,-0.002 0.068,-0.002 0.136,0z"/></g></g></svg>