<svg version="1.1" xmlns="http://www.w3.org/2000/svg" xmlns:xlink="http://www.w3.org/1999/xlink" width="8.02352" height="7.99986" viewBox="0,0,8.02352,7.99986"><g transform="translate(-315.98824,-176.00007)"><g data-paper-data="{&quot;isPaintingLayer&quot;:true}" fill="#000000" fill-rule="nonzero" stroke="none" stroke-width="1.58114" stroke-linecap="butt" stroke-linejoin="miter" stroke-miterlimit="10" stroke-dasharray="" stroke-dashoffset="0" style="mix-blend-mode: normal"><path d="M323.12283,176.00807c0.112,0.016 0.22,0.046 0.322,0.096c0.233,0.114 0.414,0.32 0.5,0.564c0.033,0.092 0.049,0.186 0.056,0.284c0.024,1.018 0.001,2.036 0.001,3.054c-0.002,0.168 -0.011,0.336 -0.032,0.502c-0.046,0.36 -0.141,0.714 -0.283,1.05c-0.3,0.71 -0.809,1.326 -1.448,1.758c-0.35,0.236 -0.736,0.416 -1.142,0.532c-0.422,0.12 -0.863,0.17 -1.3,0.146c-0.432,-0.02 -0.86,-0.114 -1.262,-0.272c-0.449,-0.176 -0.865,-0.436 -1.223,-0.762c-0.38,-0.344 -0.692,-0.762 -0.915,-1.226c-0.171,-0.354 -0.289,-0.736 -0.349,-1.126c-0.026,-0.168 -0.038,-0.336 -0.045,-0.506c-0.013,-1.05 -0.025,-2.1 0,-3.15c0.012,-0.162 0.054,-0.318 0.137,-0.458c0.049,-0.084 0.11,-0.16 0.181,-0.226c0.276,-0.256 0.684,-0.336 1.036,-0.204c0.105,0.04 0.204,0.098 0.29,0.172c0.098,0.082 0.181,0.186 0.24,0.3c0.069,0.13 0.103,0.27 0.114,0.416c0.025,1.032 -0.011,2.066 0.002,3.1c0.01,0.282 0.073,0.558 0.196,0.814c0.111,0.232 0.268,0.442 0.459,0.614c0.178,0.164 0.386,0.292 0.611,0.382c0.2,0.078 0.414,0.124 0.629,0.136c0.22,0.01 0.441,-0.014 0.652,-0.074c0.562,-0.16 1.035,-0.57 1.276,-1.102c0.11,-0.242 0.165,-0.504 0.175,-0.77c0.013,-1.034 -0.023,-2.068 0.002,-3.1c0.008,-0.114 0.03,-0.224 0.073,-0.33c0.11,-0.27 0.339,-0.482 0.617,-0.574c0.109,-0.034 0.219,-0.048 0.333,-0.048c0.048,0.002 0.048,0.002 0.097,0.008z"/></g></g></svg>