<svg version="1.1" xmlns="http://www.w3.org/2000/svg" xmlns:xlink="http://www.w3.org/1999/xlink" width="8.11858" height="13.99965" viewBox="0,0,8.11858,13.99965"><g transform="translate(-315.94071,-173.00017)"><g data-paper-data="{&quot;isPaintingLayer&quot;:true}" fill="#000000" fill-rule="nonzero" stroke="none" stroke-width="1.76777" stroke-linecap="butt" stroke-linejoin="miter" stroke-miterlimit="10" stroke-dasharray="" stroke-dashoffset="0" style="mix-blend-mode: normal"><path d="M323.08583,173.00349c0.09,0.01 0.177,0.026 0.2625,0.058c0.255,0.096 0.4635,0.294 0.5715,0.544c0.045,0.104 0.066,0.214 0.078,0.326c0.1365,4.02 0.003,8.046 0.003,12.068c-0.003,0.06 -0.0015,0.076 -0.0105,0.136c-0.021,0.158 -0.081,0.31 -0.1725,0.44c-0.1995,0.284 -0.54,0.446 -0.885,0.422c-0.0915,-0.006 -0.1815,-0.026 -0.267,-0.056c-0.108,-0.038 -0.2085,-0.094 -0.297,-0.166c-0.105,-0.086 -0.1935,-0.194 -0.2565,-0.316c-0.075,-0.144 -0.1065,-0.298 -0.1125,-0.46v-9l-1.2,1.6l-0.042,0.054c-0.0945,0.102 -0.1995,0.188 -0.3255,0.248c-0.3135,0.15 -0.693,0.124 -0.9825,-0.068c-0.0975,-0.064 -0.177,-0.144 -0.249,-0.234l-1.2,-1.6v9l-0.003,0.068c-0.0165,0.162 -0.0585,0.312 -0.1425,0.452c-0.2055,0.336 -0.6,0.524 -0.9915,0.47c-0.1125,-0.014 -0.222,-0.05 -0.324,-0.102c-0.1005,-0.052 -0.192,-0.122 -0.27,-0.206c-0.1095,-0.116 -0.189,-0.258 -0.2325,-0.412c-0.018,-0.066 -0.027,-0.134 -0.0345,-0.202c-0.138,-4.02 -0.003,-8.046 -0.003,-12.068c0.006,-0.16 0.0375,-0.312 0.1095,-0.456c0.0525,-0.1 0.12,-0.19 0.201,-0.268c0.282,-0.268 0.7065,-0.35 1.068,-0.202c0.1695,0.07 0.3075,0.184 0.4215,0.326l2.2005,2.934l2.2005,-2.934l0.042,-0.052c0.0465,-0.05 0.093,-0.098 0.147,-0.14c0.1245,-0.096 0.2715,-0.162 0.4275,-0.192c0.0585,-0.01 0.0735,-0.01 0.1335,-0.014c0.0675,-0.002 0.0675,-0.002 0.135,0.002z"/></g></g></svg>