<svg version="1.1" xmlns="http://www.w3.org/2000/svg" xmlns:xlink="http://www.w3.org/1999/xlink" width="2.51025" height="14.25378" viewBox="0,0,2.51025,14.25378"><g transform="translate(-318.74487,-172.87311)"><g data-paper-data="{&quot;isPaintingLayer&quot;:true}" fill="#000000" fill-rule="nonzero" stroke="none" stroke-width="1" stroke-linecap="butt" stroke-linejoin="miter" stroke-miterlimit="10" stroke-dasharray="" stroke-dashoffset="0" style="mix-blend-mode: normal"><path d="M320.06413,184.61789c0.188,0.015 0.368,0.06 0.534,0.151c0.342,0.185 0.584,0.528 0.642,0.912c0.02,0.126 0.02,0.256 0,0.382c-0.018,0.122 -0.055,0.242 -0.109,0.353c-0.061,0.127 -0.144,0.244 -0.244,0.343c-0.114,0.115 -0.25,0.206 -0.399,0.269c-0.154,0.066 -0.321,0.099 -0.488,0.099c-0.168,0 -0.335,-0.033 -0.489,-0.099c-0.149,-0.063 -0.285,-0.154 -0.399,-0.269c-0.099,-0.099 -0.182,-0.216 -0.244,-0.343c-0.053,-0.111 -0.09,-0.231 -0.109,-0.353c-0.019,-0.126 -0.019,-0.256 0,-0.382c0.059,-0.384 0.301,-0.727 0.642,-0.912c0.167,-0.091 0.346,-0.136 0.534,-0.151c0.065,-0.001 0.065,-0.001 0.129,0zM320.05612,172.87389c0.094,0.007 0.185,0.023 0.274,0.054c0.267,0.093 0.485,0.3 0.594,0.561c0.043,0.105 0.065,0.214 0.074,0.327c0.075,2.684 0.002,5.371 0.002,8.056c-0.005,0.151 -0.033,0.297 -0.099,0.434c-0.057,0.118 -0.137,0.224 -0.235,0.312c-0.084,0.074 -0.18,0.135 -0.284,0.178c-0.086,0.036 -0.177,0.059 -0.27,0.07c-0.339,0.038 -0.682,-0.104 -0.894,-0.371c-0.131,-0.164 -0.199,-0.359 -0.217,-0.567c-0.075,-2.684 -0.001,-5.371 -0.001,-8.056c0.003,-0.113 0.018,-0.223 0.056,-0.33c0.093,-0.267 0.3,-0.486 0.561,-0.594c0.087,-0.036 0.177,-0.057 0.271,-0.07c0.056,-0.004 0.111,-0.006 0.168,-0.004z"/></g></g></svg>