<svg version="1.1" xmlns="http://www.w3.org/2000/svg" xmlns:xlink="http://www.w3.org/1999/xlink" width="8.01671" height="13.99866" viewBox="0,0,8.01671,13.99866"><g transform="translate(-315.99165,-173.00067)"><g data-paper-data="{&quot;isPaintingLayer&quot;:true}" fill="#000000" fill-rule="nonzero" stroke="none" stroke-width="1" stroke-linecap="butt" stroke-linejoin="miter" stroke-miterlimit="10" stroke-dasharray="" stroke-dashoffset="0" style="mix-blend-mode: normal"><path d="M320.21324,179.00464c0.202,0.013 0.402,0.036 0.6,0.076c0.448,0.092 0.879,0.261 1.27,0.499c0.715,0.434 1.284,1.092 1.61,1.863c0.155,0.365 0.254,0.754 0.294,1.149c0.042,0.404 0.021,0.815 -0.06,1.213c-0.085,0.416 -0.238,0.818 -0.449,1.187c-0.24,0.416 -0.555,0.789 -0.925,1.094c-0.374,0.309 -0.803,0.548 -1.262,0.704c-0.51,0.172 -1.053,0.239 -1.59,0.198c-0.559,-0.042 -1.107,-0.204 -1.6,-0.471c-0.535,-0.291 -1.002,-0.704 -1.355,-1.201c-0.32,-0.451 -0.546,-0.968 -0.657,-1.511c-0.047,-0.232 -0.071,-0.466 -0.08,-0.702c-0.039,-3.034 -0.001,-6.069 -0.001,-9.103c0.002,-0.061 0.001,-0.076 0.009,-0.136c0.022,-0.158 0.082,-0.31 0.174,-0.441c0.053,-0.074 0.115,-0.141 0.186,-0.199c0.268,-0.218 0.64,-0.282 0.966,-0.166c0.107,0.038 0.208,0.094 0.296,0.166c0.106,0.087 0.194,0.195 0.257,0.316c0.075,0.144 0.106,0.298 0.112,0.46v5c0.706,0 1.473,-0.023 2.205,0.005zM318.00924,183.05164c0.013,0.348 0.107,0.686 0.288,0.984c0.341,0.562 0.951,0.928 1.607,0.961c0.187,0.01 0.375,-0.006 0.557,-0.048c0.205,-0.048 0.403,-0.128 0.583,-0.238c0.206,-0.125 0.389,-0.287 0.538,-0.477c0.149,-0.19 0.264,-0.408 0.336,-0.639c0.08,-0.258 0.107,-0.532 0.08,-0.801c-0.029,-0.277 -0.116,-0.547 -0.254,-0.789c-0.153,-0.264 -0.366,-0.493 -0.619,-0.664c-0.229,-0.155 -0.49,-0.261 -0.762,-0.31c-0.12,-0.021 -0.24,-0.029 -0.361,-0.031h-1.994c0,0.684 -0.008,1.368 0.001,2.052z"/></g></g></svg>