<svg version="1.1" xmlns="http://www.w3.org/2000/svg" xmlns:xlink="http://www.w3.org/1999/xlink" width="8.02665" height="7.99827" viewBox="0,0,8.02665,7.99827"><g transform="translate(-315.98668,-176.00086)"><g data-paper-data="{&quot;isPaintingLayer&quot;:true}" fill="#000000" fill-rule="nonzero" stroke="none" stroke-width="2" stroke-linecap="butt" stroke-linejoin="miter" stroke-miterlimit="10" stroke-dasharray="" stroke-dashoffset="0" style="mix-blend-mode: normal"><path d="M320.102,176.00236c0.436,0.016 0.864,0.09 1.274,0.24c1.064,0.39 1.93,1.236 2.346,2.292c0.122,0.306 0.204,0.63 0.246,0.958c0.018,0.134 0.026,0.27 0.03,0.406c0.014,1.05 0.026,2.1 0,3.15c-0.01,0.146 -0.044,0.286 -0.112,0.416c-0.06,0.114 -0.142,0.218 -0.242,0.3c-0.086,0.074 -0.184,0.132 -0.29,0.172c-0.352,0.132 -0.76,0.052 -1.036,-0.204c-0.07,-0.066 -0.13,-0.142 -0.18,-0.226c-0.082,-0.14 -0.126,-0.296 -0.136,-0.458c-0.026,-1.032 0.01,-2.066 -0.002,-3.1c-0.012,-0.282 -0.074,-0.558 -0.196,-0.814c-0.246,-0.512 -0.71,-0.904 -1.256,-1.058c-0.21,-0.06 -0.43,-0.084 -0.648,-0.074c-0.196,0.01 -0.39,0.048 -0.574,0.116c-0.23,0.082 -0.446,0.206 -0.632,0.366c-0.198,0.172 -0.362,0.382 -0.48,0.618c-0.126,0.25 -0.194,0.52 -0.212,0.798c-0.038,1.05 0.022,2.1 -0.004,3.148c-0.01,0.146 -0.044,0.286 -0.112,0.416c-0.06,0.114 -0.142,0.218 -0.242,0.3c-0.086,0.074 -0.184,0.132 -0.29,0.172c-0.352,0.132 -0.76,0.052 -1.036,-0.204c-0.07,-0.066 -0.13,-0.142 -0.18,-0.226c-0.082,-0.14 -0.126,-0.296 -0.136,-0.458c-0.026,-1.048 -0.014,-2.098 0,-3.148c0.016,-0.426 0.088,-0.846 0.232,-1.248c0.176,-0.492 0.45,-0.95 0.8,-1.336c0.418,-0.462 0.944,-0.824 1.526,-1.048c0.43,-0.166 0.88,-0.25 1.34,-0.266c0.102,-0.002 0.102,-0.002 0.202,0z"/></g></g></svg>