<svg version="1.1" xmlns="http://www.w3.org/2000/svg" xmlns:xlink="http://www.w3.org/1999/xlink" width="8.05255" height="14.00396" viewBox="0,0,8.05255,14.00396"><g transform="translate(-315.97373,-172.99802)"><g data-paper-data="{&quot;isPaintingLayer&quot;:true}" fill="#000000" fill-rule="nonzero" stroke="none" stroke-width="2" stroke-linecap="butt" stroke-linejoin="miter" stroke-miterlimit="10" stroke-dasharray="" stroke-dashoffset="0" style="mix-blend-mode: normal"><path d="M316.03017,176.90081c0.004,-0.136 0.012,-0.272 0.03,-0.406c0.042,-0.328 0.124,-0.652 0.246,-0.958c0.416,-1.056 1.282,-1.902 2.346,-2.292c0.41,-0.15 0.838,-0.224 1.274,-0.24c1.034,-0.014 2.068,-0.002 3.102,-0.002c0.162,0.006 0.316,0.038 0.46,0.112c0.122,0.062 0.23,0.15 0.316,0.256c0.264,0.326 0.296,0.794 0.078,1.152c-0.058,0.096 -0.134,0.184 -0.222,0.256c-0.124,0.1 -0.272,0.17 -0.428,0.204c-0.06,0.012 -0.076,0.012 -0.136,0.018c-1.04,0.036 -2.08,-0.01 -3.12,0.002c-0.218,0.01 -0.43,0.046 -0.636,0.122c-0.548,0.2 -0.99,0.642 -1.19,1.19c-0.082,0.224 -0.12,0.456 -0.122,0.694v1.994h5l0.068,0.002c0.162,0.016 0.312,0.058 0.452,0.144c0.116,0.07 0.218,0.166 0.296,0.278c0.242,0.342 0.242,0.81 0,1.152c-0.064,0.094 -0.146,0.176 -0.24,0.24c-0.13,0.092 -0.282,0.152 -0.44,0.174c-0.06,0.008 -0.076,0.008 -0.136,0.01h-5v5l-0.002,0.068c-0.008,0.068 -0.016,0.136 -0.036,0.202c-0.042,0.154 -0.122,0.296 -0.232,0.412c-0.076,0.084 -0.168,0.154 -0.27,0.206c-0.102,0.052 -0.212,0.088 -0.324,0.102c-0.39,0.054 -0.786,-0.134 -0.99,-0.47c-0.086,-0.14 -0.128,-0.29 -0.144,-0.452c-0.104,-3.054 -0.04,-6.114 0,-9.17z"/></g></g></svg>