<svg version="1.1" xmlns="http://www.w3.org/2000/svg" xmlns:xlink="http://www.w3.org/1999/xlink" width="8.0002" height="8.02352" viewBox="0,0,8.0002,8.02352"><g transform="translate(-315.9999,-175.98824)"><g data-paper-data="{&quot;isPaintingLayer&quot;:true}" fill="#000000" fill-rule="nonzero" stroke="none" stroke-width="1.58114" stroke-linecap="butt" stroke-linejoin="miter" stroke-miterlimit="10" stroke-dasharray="" stroke-dashoffset="0" style="mix-blend-mode: normal"><path d="M323.04776,176.00283c0.162,0.012 0.318,0.054 0.458,0.137c0.326,0.191 0.518,0.559 0.492,0.934c-0.008,0.097 -0.028,0.192 -0.062,0.283c-0.04,0.105 -0.098,0.204 -0.172,0.29c-0.082,0.098 -0.186,0.181 -0.3,0.24c-0.13,0.069 -0.27,0.103 -0.416,0.114c-1.032,0.025 -2.066,-0.011 -3.1,0.002c-0.282,0.01 -0.558,0.073 -0.814,0.196c-0.232,0.111 -0.442,0.268 -0.614,0.458c-0.164,0.179 -0.292,0.387 -0.382,0.612c-0.078,0.2 -0.124,0.414 -0.136,0.629c-0.012,0.236 0.018,0.474 0.088,0.699c0.168,0.541 0.572,0.995 1.088,1.229c0.242,0.11 0.504,0.165 0.77,0.175c1.034,0.013 2.068,-0.023 3.1,0.002c0.162,0.012 0.318,0.054 0.458,0.137c0.084,0.049 0.16,0.11 0.226,0.181c0.256,0.276 0.336,0.684 0.204,1.036c-0.04,0.105 -0.098,0.204 -0.172,0.29c-0.082,0.098 -0.186,0.181 -0.3,0.24c-0.13,0.069 -0.27,0.103 -0.416,0.114c-1.018,0.024 -2.036,0.001 -3.054,0.001c-0.168,-0.002 -0.336,-0.011 -0.502,-0.032c-0.36,-0.046 -0.714,-0.141 -1.05,-0.283c-0.65,-0.275 -1.224,-0.725 -1.646,-1.291c-0.292,-0.39 -0.512,-0.832 -0.644,-1.3c-0.12,-0.421 -0.17,-0.862 -0.146,-1.299c0.02,-0.432 0.114,-0.86 0.272,-1.262c0.176,-0.449 0.436,-0.865 0.762,-1.223c0.344,-0.38 0.762,-0.692 1.226,-0.915c0.354,-0.171 0.736,-0.289 1.126,-0.349c0.168,-0.026 0.336,-0.038 0.506,-0.045c1.05,-0.013 2.1,-0.025 3.15,0z"/></g></g></svg>