<svg version="1.1" xmlns="http://www.w3.org/2000/svg" xmlns:xlink="http://www.w3.org/1999/xlink" width="8.00883" height="14.01843" viewBox="0,0,8.00883,14.01843"><g transform="translate(-315.99558,-172.99078)"><g data-paper-data="{&quot;isPaintingLayer&quot;:true}" fill="#000000" fill-rule="nonzero" stroke="none" stroke-width="2" stroke-linecap="butt" stroke-linejoin="miter" stroke-miterlimit="10" stroke-dasharray="" stroke-dashoffset="0" style="mix-blend-mode: normal"><path d="M323.14168,179.00557c0.068,0.012 0.134,0.024 0.198,0.048c0.152,0.054 0.288,0.142 0.396,0.26c0.078,0.082 0.142,0.18 0.188,0.284c0.156,0.362 0.082,0.792 -0.188,1.08c-0.076,0.084 -0.168,0.154 -0.27,0.206c-0.144,0.074 -0.298,0.106 -0.46,0.112h-5c0,0.684 -0.008,1.368 0,2.052c0.002,0.052 0.006,0.102 0.01,0.154c0.024,0.214 0.078,0.42 0.166,0.616c0.22,0.484 0.636,0.876 1.136,1.056c0.206,0.074 0.418,0.112 0.636,0.122c1.018,0.012 2.034,0 3.052,0c0.06,0.002 0.076,0.002 0.136,0.01c0.158,0.022 0.31,0.082 0.44,0.174c0.342,0.24 0.5,0.682 0.386,1.086c-0.03,0.11 -0.08,0.214 -0.146,0.306c-0.078,0.112 -0.18,0.208 -0.296,0.278c-0.14,0.086 -0.29,0.128 -0.452,0.144c-1.024,0.034 -2.05,0.002 -3.074,0.002c-0.434,-0.006 -0.864,-0.07 -1.276,-0.21c-0.46,-0.156 -0.89,-0.396 -1.262,-0.704c-0.522,-0.43 -0.932,-0.99 -1.178,-1.62c-0.122,-0.308 -0.202,-0.63 -0.246,-0.958c-0.018,-0.134 -0.026,-0.27 -0.03,-0.406c-0.026,-2.036 -0.002,-4.072 -0.002,-6.108c0.006,-0.436 0.07,-0.864 0.21,-1.276c0.374,-1.106 1.238,-2.012 2.324,-2.44c0.306,-0.122 0.63,-0.204 0.958,-0.246c0.134,-0.018 0.27,-0.026 0.406,-0.03c1.034,-0.014 2.068,-0.002 3.102,-0.002c0.06,0.002 0.076,0.002 0.136,0.01c0.158,0.022 0.31,0.082 0.44,0.174c0.094,0.064 0.176,0.146 0.24,0.24c0.242,0.342 0.242,0.81 0,1.152c-0.078,0.112 -0.18,0.208 -0.296,0.278c-0.14,0.086 -0.29,0.128 -0.452,0.144c-1.04,0.036 -2.08,-0.01 -3.12,0.002c-0.218,0.01 -0.43,0.046 -0.636,0.122c-0.548,0.2 -0.99,0.642 -1.19,1.19c-0.082,0.224 -0.118,0.456 -0.122,0.694v1.994h5c0.068,0.002 0.068,0.002 0.136,0.01z"/></g></g></svg>