<svg version="1.1" xmlns="http://www.w3.org/2000/svg" xmlns:xlink="http://www.w3.org/1999/xlink" width="2.51025" height="11.15015" viewBox="0,0,2.51025,11.15015"><g transform="translate(-318.74489,-174.04873)"><g data-paper-data="{&quot;isPaintingLayer&quot;:true}" fill="#000000" fill-rule="nonzero" stroke="none" stroke-width="1" stroke-linecap="butt" stroke-linejoin="miter" stroke-miterlimit="10" stroke-dasharray="" stroke-dashoffset="0" style="mix-blend-mode: normal"><path d="M320.04504,174.0491c0.104,0.008 0.205,0.027 0.303,0.064c0.249,0.094 0.453,0.289 0.56,0.532c0.047,0.107 0.073,0.219 0.083,0.334c0.053,1.033 0.019,-0.4917 0.001,0.5433c-0.007,0.15 -0.043,0.296 -0.114,0.43c-0.058,0.112 -0.139,0.213 -0.235,0.295c-0.087,0.075 -0.188,0.134 -0.295,0.175c-0.35,0.133 -0.755,0.055 -1.031,-0.198c-0.076,-0.07 -0.142,-0.152 -0.193,-0.242c-0.081,-0.142 -0.122,-0.298 -0.13,-0.46c-0.018,-1.023 -0.018,0.5137 0,-0.5093c0.005,-0.104 0.023,-0.205 0.058,-0.303c0.09,-0.251 0.281,-0.459 0.523,-0.57c0.105,-0.049 0.217,-0.076 0.332,-0.088c0.046,-0.003 0.092,-0.004 0.138,-0.003z"/><path d="M320.06414,182.68987c0.188,0.015 0.368,0.06 0.534,0.151c0.342,0.185 0.584,0.528 0.642,0.912c0.02,0.126 0.02,0.256 0,0.382c-0.018,0.122 -0.055,0.242 -0.109,0.353c-0.061,0.127 -0.144,0.244 -0.244,0.343c-0.114,0.115 -0.25,0.206 -0.399,0.269c-0.154,0.066 -0.321,0.099 -0.488,0.099c-0.168,0 -0.335,-0.033 -0.489,-0.099c-0.149,-0.063 -0.285,-0.154 -0.399,-0.269c-0.099,-0.099 -0.182,-0.216 -0.244,-0.343c-0.053,-0.111 -0.09,-0.231 -0.109,-0.353c-0.019,-0.126 -0.019,-0.256 0,-0.382c0.059,-0.384 0.301,-0.727 0.642,-0.912c0.167,-0.091 0.346,-0.136 0.534,-0.151c0.065,-0.001 0.065,-0.001 0.129,0z"/></g></g></svg>