<svg version="1.1" xmlns="http://www.w3.org/2000/svg" xmlns:xlink="http://www.w3.org/1999/xlink" width="8.06995" height="14.02237" viewBox="0,0,8.06995,14.02237"><g transform="translate(-315.96502,-172.98881)"><g data-paper-data="{&quot;isPaintingLayer&quot;:true}" fill="#000000" fill-rule="nonzero" stroke="none" stroke-width="2" stroke-linecap="butt" stroke-linejoin="miter" stroke-miterlimit="10" stroke-dasharray="" stroke-dashoffset="0" style="mix-blend-mode: normal"><path d="M320.12688,173.0084c0.436,0.016 0.864,0.09 1.274,0.24c1.064,0.39 1.93,1.236 2.346,2.292c0.122,0.306 0.204,0.63 0.246,0.958c0.018,0.134 0.026,0.27 0.03,0.406c0.026,2.036 0.002,4.072 0.002,6.108c-0.006,0.436 -0.07,0.864 -0.21,1.276c-0.374,1.106 -1.238,2.012 -2.324,2.44c-0.306,0.122 -0.63,0.204 -0.958,0.246c-0.134,0.018 -0.27,0.026 -0.406,0.03c-1.034,0.014 -2.068,0.002 -3.102,0.002c-0.116,-0.004 -0.226,-0.018 -0.334,-0.058c-0.282,-0.1 -0.508,-0.326 -0.608,-0.608c-0.032,-0.086 -0.046,-0.174 -0.056,-0.266c-0.138,-4.02 -0.002,-8.046 -0.002,-12.068c0.004,-0.092 0.012,-0.18 0.038,-0.27c0.08,-0.288 0.29,-0.528 0.564,-0.648c0.106,-0.046 0.216,-0.068 0.33,-0.08c1.056,-0.036 2.114,-0.014 3.17,0zM318.02488,175.0064v10c0.684,0 1.368,0.008 2.052,0c0.218,-0.008 0.43,-0.046 0.636,-0.122c0.532,-0.194 0.966,-0.618 1.174,-1.144c0.086,-0.218 0.128,-0.448 0.138,-0.682c0.024,-2.034 0.024,-4.07 0,-6.104c-0.01,-0.218 -0.046,-0.432 -0.122,-0.636c-0.194,-0.532 -0.618,-0.966 -1.144,-1.174c-0.218,-0.086 -0.448,-0.128 -0.682,-0.138c-0.684,-0.008 -1.368,0 -2.052,0z"/></g></g></svg>