<svg version="1.1" xmlns="http://www.w3.org/2000/svg" xmlns:xlink="http://www.w3.org/1999/xlink" width="8.11971" height="13.99867" viewBox="0,0,8.11971,13.99867"><g transform="translate(-315.94014,-173.00066)"><g data-paper-data="{&quot;isPaintingLayer&quot;:true}" fill="#000000" fill-rule="nonzero" stroke="none" stroke-width="2" stroke-linecap="butt" stroke-linejoin="miter" stroke-miterlimit="10" stroke-dasharray="" stroke-dashoffset="0" style="mix-blend-mode: normal"><path d="M323.068,173.00216c0.114,0.012 0.224,0.034 0.33,0.08c0.252,0.11 0.452,0.324 0.544,0.584c0.032,0.086 0.046,0.174 0.056,0.266c0.138,4.02 0.002,8.046 0.002,12.068c-0.006,0.162 -0.038,0.318 -0.114,0.462c-0.052,0.102 -0.122,0.194 -0.206,0.272c-0.31,0.286 -0.778,0.346 -1.15,0.148c-0.142,-0.074 -0.264,-0.184 -0.354,-0.316c-0.036,-0.05 -0.042,-0.066 -0.07,-0.118l-4.106,-8.212v7.764l-0.002,0.068c-0.008,0.068 -0.016,0.136 -0.036,0.202c-0.042,0.154 -0.122,0.296 -0.232,0.412c-0.076,0.084 -0.168,0.154 -0.27,0.206c-0.102,0.052 -0.212,0.088 -0.324,0.102c-0.39,0.054 -0.786,-0.134 -0.99,-0.47c-0.086,-0.14 -0.128,-0.29 -0.144,-0.452c-0.138,-4.02 -0.002,-8.046 -0.002,-12.068c0.002,-0.06 0.002,-0.076 0.01,-0.136c0.022,-0.16 0.082,-0.312 0.174,-0.444c0.068,-0.092 0.15,-0.174 0.244,-0.24c0.344,-0.24 0.818,-0.236 1.158,0.01c0.132,0.096 0.23,0.22 0.308,0.362l4.106,8.212v-7.764l0.002,-0.068c0.01,-0.092 0.024,-0.18 0.056,-0.266c0.092,-0.26 0.292,-0.474 0.544,-0.584c0.106,-0.046 0.216,-0.068 0.33,-0.08c0.068,-0.002 0.068,-0.002 0.136,0z"/></g></g></svg>