<svg version="1.1" xmlns="http://www.w3.org/2000/svg" xmlns:xlink="http://www.w3.org/1999/xlink" width="8.05877" height="13.99852" viewBox="0,0,8.05877,13.99852"><g transform="translate(-316.75743,-172.91668)"><g data-paper-data="{&quot;isPaintingLayer&quot;:true}" fill="#000000" fill-rule="nonzero" stroke="none" stroke-width="1" stroke-linecap="butt" stroke-linejoin="miter" stroke-miterlimit="10" stroke-dasharray="" stroke-dashoffset="0" style="mix-blend-mode: normal"><path d="M323.84768,172.92024c0.09,0.011 0.176,0.028 0.261,0.06c0.254,0.095 0.462,0.294 0.569,0.543c0.044,0.105 0.066,0.213 0.078,0.326c0.135,4.02 0.002,8.045 0.002,12.067c-0.002,0.061 -0.001,0.076 -0.009,0.136c-0.022,0.158 -0.082,0.31 -0.174,0.441c-0.053,0.074 -0.115,0.141 -0.186,0.199c-0.268,0.218 -0.64,0.282 -0.966,0.166c-0.107,-0.038 -0.208,-0.094 -0.296,-0.166c-0.106,-0.087 -0.194,-0.195 -0.257,-0.316c-0.075,-0.144 -0.106,-0.298 -0.112,-0.46v-5h-5l-0.067,-0.002c-0.159,-0.016 -0.308,-0.057 -0.446,-0.14c-0.292,-0.174 -0.479,-0.495 -0.487,-0.836c-0.002,-0.089 0.008,-0.179 0.03,-0.266c0.039,-0.156 0.116,-0.291 0.217,-0.414c1.947,-2.082 4.03,-4.033 6.046,-6.049c0.133,-0.125 0.285,-0.218 0.463,-0.263c0.066,-0.016 0.131,-0.024 0.199,-0.029c0.068,-0.001 0.067,-0.001 0.135,0.003zM322.75768,176.33024l-2.586,2.586h2.586c0,-0.862 0,-1.724 0,-2.586z"/></g></g></svg>