<svg version="1.1" xmlns="http://www.w3.org/2000/svg" xmlns:xlink="http://www.w3.org/1999/xlink" width="8.0212" height="13.99947" viewBox="0,0,8.0212,13.99947"><g transform="translate(-315.9894,-173.00026)"><g data-paper-data="{&quot;isPaintingLayer&quot;:true}" fill="#000000" fill-rule="nonzero" stroke="none" stroke-width="1" stroke-linecap="butt" stroke-linejoin="miter" stroke-miterlimit="10" stroke-dasharray="" stroke-dashoffset="0" style="mix-blend-mode: normal"><path d="M320.10278,173.00062c0.435,0.017 0.862,0.092 1.272,0.242c1.065,0.39 1.931,1.236 2.347,2.29c0.122,0.308 0.204,0.631 0.246,0.959c0.017,0.135 0.026,0.269 0.031,0.405c0.026,2.036 0.001,4.073 0.001,6.109c-0.002,0.168 -0.011,0.335 -0.032,0.502c-0.046,0.361 -0.141,0.715 -0.283,1.049c-0.288,0.681 -0.766,1.276 -1.369,1.705c-0.37,0.263 -0.785,0.462 -1.221,0.586c-0.422,0.12 -0.863,0.169 -1.3,0.147c-0.432,-0.022 -0.86,-0.114 -1.262,-0.273c-0.449,-0.177 -0.865,-0.436 -1.223,-0.761c-0.38,-0.346 -0.692,-0.764 -0.915,-1.226c-0.171,-0.356 -0.289,-0.737 -0.349,-1.127c-0.026,-0.168 -0.038,-0.336 -0.045,-0.505c-0.025,-2.036 -0.001,-4.073 -0.001,-6.109c0.005,-0.435 0.071,-0.864 0.21,-1.277c0.364,-1.074 1.189,-1.961 2.233,-2.402c0.303,-0.129 0.623,-0.219 0.949,-0.269c0.134,-0.02 0.268,-0.032 0.403,-0.041c0.103,-0.004 0.205,-0.005 0.308,-0.004zM319.94778,175.00062c-0.218,0.008 -0.431,0.045 -0.636,0.12c-0.531,0.195 -0.966,0.619 -1.174,1.146c-0.085,0.218 -0.128,0.447 -0.137,0.681c-0.026,2.034 -0.026,4.07 0,6.104c0.009,0.25 0.058,0.495 0.156,0.726c0.234,0.553 0.718,0.982 1.295,1.146c0.211,0.06 0.432,0.084 0.652,0.073c0.215,-0.011 0.429,-0.056 0.629,-0.135c0.225,-0.089 0.433,-0.219 0.611,-0.381c0.191,-0.173 0.348,-0.383 0.459,-0.614c0.123,-0.256 0.186,-0.532 0.196,-0.815c0.026,-2.034 0.026,-4.07 0,-6.104c-0.008,-0.217 -0.045,-0.431 -0.12,-0.636c-0.195,-0.532 -0.619,-0.966 -1.146,-1.174c-0.186,-0.073 -0.38,-0.114 -0.578,-0.132c-0.069,-0.004 -0.138,-0.006 -0.207,-0.005z"/></g></g></svg>