<svg version="1.1" xmlns="http://www.w3.org/2000/svg" xmlns:xlink="http://www.w3.org/1999/xlink" width="8.05971" height="14.01315" viewBox="0,0,8.05971,14.01315"><g transform="translate(-315.97014,-172.99343)"><g data-paper-data="{&quot;isPaintingLayer&quot;:true}" fill="#000000" fill-rule="nonzero" stroke="none" stroke-width="2" stroke-linecap="butt" stroke-linejoin="miter" stroke-miterlimit="10" stroke-dasharray="" stroke-dashoffset="0" style="mix-blend-mode: normal"><path d="M323.038,172.99493c0.092,0.01 0.18,0.024 0.266,0.056c0.26,0.092 0.474,0.292 0.584,0.544c0.046,0.106 0.068,0.216 0.08,0.33c0.138,4.02 0.002,8.046 0.002,12.068c-0.004,0.092 -0.012,0.18 -0.038,0.27c-0.08,0.288 -0.29,0.528 -0.564,0.648c-0.106,0.046 -0.216,0.068 -0.33,0.08c-1.024,0.034 -2.05,0.002 -3.074,0.002c-0.168,-0.002 -0.336,-0.01 -0.502,-0.032c-0.392,-0.05 -0.778,-0.158 -1.138,-0.322c-0.468,-0.212 -0.894,-0.514 -1.25,-0.886c-0.332,-0.35 -0.602,-0.758 -0.79,-1.202c-0.18,-0.43 -0.286,-0.888 -0.308,-1.354c-0.024,-0.436 0.026,-0.878 0.146,-1.298c0.124,-0.438 0.324,-0.852 0.586,-1.222c0.428,-0.602 1.024,-1.082 1.704,-1.37c0.336,-0.14 0.69,-0.236 1.05,-0.282c0.166,-0.022 0.334,-0.03 0.502,-0.032h2.006v-5l0.002,-0.068c0.012,-0.114 0.034,-0.224 0.08,-0.33c0.11,-0.252 0.324,-0.452 0.584,-0.544c0.086,-0.032 0.174,-0.046 0.266,-0.056c0.068,-0.002 0.068,-0.002 0.136,0zM319.976,180.99293c-0.27,0.004 -0.534,0.052 -0.784,0.156c-0.552,0.234 -0.982,0.718 -1.146,1.296c-0.064,0.228 -0.088,0.466 -0.07,0.702c0.016,0.216 0.068,0.426 0.15,0.624c0.094,0.222 0.23,0.428 0.396,0.602c0.178,0.186 0.39,0.338 0.626,0.444c0.262,0.118 0.542,0.172 0.828,0.176h1.994v-4c-0.664,0 -1.33,0 -1.994,0z"/></g></g></svg>