<svg version="1.1" xmlns="http://www.w3.org/2000/svg" xmlns:xlink="http://www.w3.org/1999/xlink" width="8.06009" height="14.02237" viewBox="0,0,8.06009,14.02237"><g transform="translate(-315.96995,-172.98881)"><g data-paper-data="{&quot;isPaintingLayer&quot;:true}" fill="#000000" fill-rule="nonzero" stroke="none" stroke-width="2" stroke-linecap="butt" stroke-linejoin="miter" stroke-miterlimit="10" stroke-dasharray="" stroke-dashoffset="0" style="mix-blend-mode: normal"><path d="M320.13181,173.00839c0.17,0.006 0.338,0.018 0.506,0.044c0.39,0.06 0.772,0.178 1.126,0.348c0.376,0.182 0.724,0.422 1.026,0.71c0.324,0.31 0.598,0.674 0.802,1.074c0.518,1.014 0.578,2.23 0.16,3.288c-0.154,0.39 -0.37,0.756 -0.636,1.078c-0.122,0.15 -0.256,0.286 -0.396,0.416l-0.024,0.022c0.056,0.05 0.056,0.05 0.112,0.102c0.07,0.07 0.07,0.068 0.138,0.138c0.11,0.12 0.216,0.242 0.312,0.372c0.21,0.284 0.382,0.596 0.508,0.924c0.128,0.33 0.21,0.678 0.244,1.03c0.038,0.368 0.022,0.744 -0.044,1.11c-0.076,0.426 -0.22,0.838 -0.426,1.218c-0.358,0.658 -0.898,1.212 -1.548,1.586c-0.404,0.232 -0.846,0.392 -1.304,0.474c-0.204,0.036 -0.408,0.054 -0.614,0.062c-1.014,0.014 -2.03,0.002 -3.044,0.002c-0.092,-0.004 -0.18,-0.012 -0.27,-0.038c-0.288,-0.08 -0.528,-0.29 -0.648,-0.564c-0.046,-0.106 -0.068,-0.216 -0.08,-0.33c-0.138,-4.02 -0.002,-8.046 -0.002,-12.068c0.004,-0.116 0.018,-0.226 0.058,-0.334c0.1,-0.282 0.326,-0.508 0.608,-0.608c0.086,-0.032 0.174,-0.046 0.266,-0.056c1.056,-0.036 2.114,-0.014 3.17,0zM319.96381,185.00639c0.278,-0.004 0.55,-0.052 0.808,-0.162c0.568,-0.24 1.01,-0.738 1.18,-1.334c0.062,-0.214 0.086,-0.44 0.076,-0.664c-0.012,-0.222 -0.06,-0.44 -0.146,-0.644c-0.09,-0.22 -0.222,-0.422 -0.386,-0.594c-0.174,-0.184 -0.386,-0.334 -0.618,-0.436c-0.25,-0.11 -0.518,-0.162 -0.79,-0.166h-2.058v4c0.644,0 1.29,0 1.934,0zM318.02981,175.00639v4c0.684,0 1.368,0.008 2.052,0c0.282,-0.012 0.558,-0.074 0.814,-0.196c0.232,-0.112 0.442,-0.27 0.614,-0.46c0.164,-0.178 0.292,-0.386 0.382,-0.61c0.078,-0.202 0.124,-0.414 0.136,-0.63c0.012,-0.236 -0.018,-0.474 -0.088,-0.7c-0.168,-0.54 -0.572,-0.994 -1.088,-1.228c-0.228,-0.102 -0.47,-0.158 -0.718,-0.174c-0.7,-0.026 -1.402,-0.002 -2.104,-0.002z"/></g></g></svg>