<svg version="1.1" xmlns="http://www.w3.org/2000/svg" xmlns:xlink="http://www.w3.org/1999/xlink" width="2.11971" height="13.99807" viewBox="0,0,2.11971,13.99807"><g transform="translate(-318.11635,-172.80417)"><g data-paper-data="{&quot;isPaintingLayer&quot;:true}" fill="#000000" fill-rule="nonzero" stroke="none" stroke-width="2" stroke-linecap="butt" stroke-linejoin="miter" stroke-miterlimit="10" stroke-dasharray="" stroke-dashoffset="0" style="mix-blend-mode: normal"><path d="M319.24421,172.80567c0.114,0.012 0.224,0.034 0.33,0.08c0.252,0.11 0.452,0.324 0.544,0.584c0.032,0.086 0.046,0.174 0.056,0.266c0.138,4.02 0.002,8.046 0.002,12.068c-0.006,0.162 -0.038,0.316 -0.112,0.46c-0.062,0.122 -0.15,0.23 -0.256,0.316c-0.09,0.072 -0.19,0.128 -0.298,0.166c-0.394,0.14 -0.846,0.014 -1.11,-0.31c-0.1,-0.124 -0.17,-0.272 -0.204,-0.428c-0.012,-0.06 -0.012,-0.076 -0.018,-0.136c-0.138,-4.02 -0.002,-8.046 -0.002,-12.068c0.004,-0.116 0.018,-0.226 0.058,-0.334c0.1,-0.282 0.326,-0.508 0.608,-0.608c0.086,-0.032 0.174,-0.046 0.266,-0.056c0.068,-0.002 0.068,-0.002 0.136,0z"/></g></g></svg>