<svg version="1.1" xmlns="http://www.w3.org/2000/svg" xmlns:xlink="http://www.w3.org/1999/xlink" width="8.0577" height="14.01615" viewBox="0,0,8.0577,14.01615"><g transform="translate(-315.97115,-172.99192)"><g data-paper-data="{&quot;isPaintingLayer&quot;:true}" fill="#000000" fill-rule="nonzero" stroke="none" stroke-width="2" stroke-linecap="butt" stroke-linejoin="miter" stroke-miterlimit="10" stroke-dasharray="" stroke-dashoffset="0" style="mix-blend-mode: normal"><path d="M320.13301,173.01151c0.17,0.006 0.338,0.018 0.506,0.044c0.39,0.06 0.772,0.178 1.126,0.348c0.464,0.224 0.882,0.536 1.226,0.916c0.326,0.358 0.586,0.774 0.762,1.224c0.418,1.058 0.358,2.274 -0.16,3.288c-0.204,0.4 -0.478,0.764 -0.802,1.074c-0.302,0.288 -0.65,0.528 -1.026,0.71c-0.386,0.186 -0.8,0.308 -1.226,0.362c-0.166,0.022 -0.334,0.03 -0.502,0.032h-2.006v5l-0.002,0.068c-0.008,0.068 -0.016,0.136 -0.036,0.202c-0.042,0.154 -0.122,0.296 -0.232,0.412c-0.268,0.288 -0.694,0.392 -1.064,0.26c-0.108,-0.038 -0.208,-0.094 -0.298,-0.166c-0.088,-0.072 -0.164,-0.16 -0.222,-0.256c-0.086,-0.14 -0.128,-0.29 -0.144,-0.452c-0.138,-4.02 -0.002,-8.046 -0.002,-12.068c0.004,-0.116 0.018,-0.226 0.058,-0.334c0.1,-0.282 0.326,-0.508 0.608,-0.608c0.086,-0.032 0.174,-0.046 0.266,-0.056c1.056,-0.036 2.114,-0.014 3.17,0zM318.03101,175.00951v4c0.684,0 1.368,0.008 2.052,0c0.282,-0.012 0.558,-0.074 0.814,-0.196c0.232,-0.112 0.442,-0.27 0.614,-0.46c0.164,-0.178 0.292,-0.386 0.382,-0.61c0.078,-0.202 0.124,-0.414 0.136,-0.63c0.012,-0.236 -0.018,-0.474 -0.088,-0.7c-0.168,-0.54 -0.572,-0.994 -1.088,-1.228c-0.228,-0.102 -0.47,-0.158 -0.718,-0.174c-0.702,-0.026 -1.402,-0.002 -2.104,-0.002z"/></g></g></svg>