<svg version="1.1" xmlns="http://www.w3.org/2000/svg" xmlns:xlink="http://www.w3.org/1999/xlink" width="7.99893" height="8.0715" viewBox="0,0,7.99893,8.0715"><g transform="translate(-316.28281,-175.37792)"><g data-paper-data="{&quot;isPaintingLayer&quot;:true}" fill="#000000" fill-rule="nonzero" stroke="none" stroke-width="1.58114" stroke-linecap="butt" stroke-linejoin="miter" stroke-miterlimit="10" stroke-dasharray="" stroke-dashoffset="0" style="mix-blend-mode: normal"><path d="M323.32975,175.41467c0.162,0.012 0.316,0.054 0.456,0.136c0.324,0.189 0.518,0.553 0.494,0.927c-0.006,0.096 -0.026,0.191 -0.06,0.281c-0.05,0.138 -0.13,0.257 -0.23,0.362l-4.294,4.293c1.212,0 2.424,-0.028 3.634,0.001c0.048,0.004 0.048,0.004 0.096,0.009c0.178,0.031 0.342,0.097 0.482,0.21c0.334,0.269 0.46,0.734 0.31,1.135c-0.042,0.105 -0.098,0.204 -0.172,0.29c-0.082,0.098 -0.186,0.181 -0.3,0.24c-0.13,0.069 -0.27,0.103 -0.416,0.114c-2.032,0.049 -4.064,0.049 -6.096,0c-0.162,-0.012 -0.316,-0.054 -0.456,-0.136c-0.084,-0.048 -0.16,-0.109 -0.226,-0.179c-0.256,-0.273 -0.338,-0.678 -0.208,-1.029c0.05,-0.138 0.13,-0.257 0.23,-0.362l4.294,-4.293c-1.212,0 -2.424,0.028 -3.634,-0.001c-0.048,-0.004 -0.048,-0.004 -0.096,-0.009c-0.144,-0.025 -0.28,-0.073 -0.404,-0.154c-0.108,-0.07 -0.202,-0.162 -0.274,-0.268c-0.244,-0.352 -0.232,-0.835 0.028,-1.175c0.068,-0.09 0.152,-0.168 0.246,-0.229c0.15,-0.099 0.32,-0.15 0.5,-0.163c2.032,-0.049 4.064,-0.049 6.096,0z"/></g></g></svg>